<svg xmlns="http://www.w3.org/2000/svg" viewBox="0 0 387.9 477.9" fill="#fff"><path d="M150.1 412.7c-5.8 13.2.3 28.6 13.4 34.3 13.2 5.8 28.6-.3 34.3-13.4 5.8-13.2-.3-28.6-13.4-34.3-13.1-5.8-28.5.2-34.3 13.4zM183 427c-2.2 5-8 7.2-13 5.1-5-2.2-7.2-8-5.1-13 2.2-5 8-7.2 13-5.1 5 2.3 7.3 8.1 5.1 13zM345.5 31.1c-13.2-5.8-28.6.3-34.3 13.4-5.8 13.2.3 28.6 13.4 34.3s28.6-.3 34.3-13.4c5.8-13.2-.2-28.6-13.4-34.3zM331.1 64c-5-2.2-7.2-8-5.1-13 2.2-5 8-7.2 13-5.1 5 2.2 7.2 8 5.1 13-2.2 5-8 7.2-13 5.1z"/><path d="M342.1.5c-14-1.9-27.9 1.7-39.2 10.3-11.3 8.6-18.5 21-20.4 35-1.7 12.4-3.8 24.9-6.1 37.2-.9 4.4 2 8.7 6.4 9.5 4.4.9 8.6-2 9.5-6.4 2.4-12.6 4.5-25.4 6.3-38.1 1.3-9.7 6.4-18.4 14.2-24.3 7.8-5.9 17.5-8.5 27.2-7.2 9.7 1.3 18.4 6.4 24.3 14.2 5.9 7.8 8.5 17.5 7.2 27.2-9.7 71.1-29.3 140.7-58.3 207-29 66.3-66.8 128-112.4 183.4-6.2 7.6-15.1 12.3-24.8 13.2-9.8.9-19.3-2-26.9-8.2-7.6-6.2-12.3-15.1-13.2-24.8-.9-9.8 2-19.3 8.2-26.9 3-3.6 6-7.3 8.9-11l4.5-5.7c3.8-4.9 7.5-9.9 11.2-14.9 30.5-41.7 56.4-86.7 77.3-134.5 17.5-40 31.3-81.6 41.1-123.8 1-4.4-1.7-8.7-6.1-9.7-4.4-1-8.7 1.7-9.7 6.1-9.6 41.2-23.1 81.9-40.2 120.9a691.07 691.07 0 0 1-67 119.4L152 318l3.1-1.2c.3-.1.5-.2.8-.4 6.1-3.3 25.1-16.3 12.4-48.2L106 113c-1.7-4.2-6.4-6.2-10.5-4.5-4.2 1.7-6.2 6.4-4.5 10.5l62 155.2c5.4 13.6 3.9 23-4.6 27.7l-10.2 4.1c-4.2 1.7-6.2 6.4-4.5 10.5l19 47.5c-1 1.3-1.9 2.6-2.9 3.9-.4.5-.7 1-1.1 1.4L18.2 42.7c-1.3-3.2-1.7-5.3-1.9-6.5h.3l1.4.3h.1l2.8.6C40.6 43.6 66.6 58 79.3 89.8l1.7 4.4c1.7 4.2 6.4 6.2 10.5 4.5 4.2-1.7 6.2-6.4 4.5-10.5l-1.7-4.4C79.2 45.9 48.6 29.1 25.5 21.6c-.2-.1-.5-.1-.7-.2l-4.9-1.1c-.1 0-.3-.1-.4-.1-6.9-1.2-12.7.6-16.2 5-6.4 7.9-1.7 19.6-.2 23.5l134 335.5c-1.9 2.4-3.8 4.8-5.8 7.1-9 10.9-13.2 24.7-11.8 38.8 1.4 14.1 8.1 26.8 19 35.8 22.5 18.6 56 15.3 74.6-7.2 46.6-56.5 85.2-119.5 114.8-187.2 29.6-67.7 49.6-138.8 59.5-211.3 4-29-16.3-55.8-45.3-59.7z"/></svg>