<?xml version="1.0" standalone="no"?>
<!DOCTYPE svg PUBLIC "-//W3C//DTD SVG 20010904//EN"
 "http://www.w3.org/TR/2001/REC-SVG-20010904/DTD/svg10.dtd">
<svg version="1.0" xmlns="http://www.w3.org/2000/svg"
 width="2118.000000pt" height="2118.000000pt" viewBox="0 0 2118.000000 2118.000000"
 preserveAspectRatio="xMidYMid meet">
<metadata>
Created by potrace 1.11, written by Peter Selinger 2001-2013
</metadata>
<g transform="translate(0.000000,2118.000000) scale(0.100000,-0.100000)"
fill="#000000" stroke="none">
<path d="M8509 13275 c-3 -2 -27 -7 -55 -10 -28 -3 -61 -8 -75 -10 -13 -3 -37
-8 -54 -10 -74 -13 -259 -68 -360 -106 -60 -22 -116 -41 -122 -42 -7 0 -13 -4
-13 -9 0 -4 -4 -8 -10 -8 -22 0 -330 -149 -475 -230 -49 -28 -101 -56 -115
-62 -14 -7 -27 -15 -30 -18 -5 -5 -20 -14 -99 -58 -25 -14 -47 -29 -49 -34 -2
-4 -8 -8 -13 -8 -5 0 -33 -16 -63 -35 -30 -19 -57 -35 -60 -35 -3 0 -35 -20
-72 -45 -36 -25 -67 -45 -69 -45 -5 0 -398 -262 -405 -270 -3 -3 -30 -22 -60
-42 -30 -20 -89 -60 -131 -90 -42 -29 -104 -73 -139 -97 -35 -24 -70 -50 -79
-57 -9 -8 -44 -33 -78 -56 -107 -74 -458 -332 -461 -340 -2 -5 -8 -8 -13 -8
-5 0 -17 -7 -26 -15 -10 -8 -133 -99 -274 -202 -141 -104 -269 -198 -285 -210
-27 -20 -58 -43 -239 -173 -38 -27 -79 -57 -90 -65 -59 -45 -85 -63 -130 -95
-27 -19 -51 -38 -53 -42 -2 -4 -8 -8 -13 -8 -6 0 -15 -5 -22 -11 -12 -10 -272
-196 -311 -221 -10 -7 -39 -28 -63 -45 -24 -18 -47 -33 -52 -33 -5 0 -11 -3
-13 -7 -1 -5 -37 -30 -78 -58 -41 -27 -77 -52 -80 -55 -3 -3 -75 -52 -160
-108 -85 -56 -159 -105 -165 -110 -20 -16 -377 -242 -382 -242 -3 0 -28 -16
-54 -35 -27 -19 -55 -35 -63 -35 -8 0 -16 -4 -18 -8 -3 -9 -105 -72 -115 -72
-3 0 -14 -6 -22 -14 -9 -7 -41 -27 -71 -43 -30 -17 -79 -44 -108 -62 -29 -17
-55 -31 -57 -31 -2 0 -26 -13 -52 -28 -100 -59 -494 -264 -513 -267 -3 -1 -34
-15 -70 -32 -36 -17 -92 -43 -125 -58 -33 -15 -73 -33 -90 -40 -16 -8 -55 -23
-85 -35 -30 -11 -64 -25 -75 -30 -34 -16 -115 -46 -256 -95 -73 -25 -141 -49
-149 -52 -18 -7 -26 -9 -60 -16 -14 -3 -36 -10 -50 -16 -21 -9 -53 -18 -170
-47 -86 -21 -108 -26 -130 -30 -14 -3 -41 -9 -60 -14 -19 -5 -51 -11 -70 -14
-19 -3 -47 -8 -62 -11 -33 -6 -74 -12 -143 -20 -27 -3 -57 -8 -65 -10 -8 -2
-62 -7 -120 -11 -58 -3 -108 -9 -112 -12 -6 -6 29 -74 75 -146 49 -77 195
-216 305 -290 94 -62 292 -171 292 -159 0 3 6 1 13 -4 6 -5 35 -17 62 -27 28
-10 59 -21 70 -26 46 -19 85 -31 180 -56 55 -14 107 -27 115 -28 8 -2 29 -6
45 -9 40 -10 72 -16 115 -22 20 -3 45 -7 55 -9 11 -2 43 -6 70 -10 28 -3 70
-9 95 -12 25 -3 77 -8 115 -11 90 -8 696 -8 795 0 136 11 194 16 240 22 25 3
68 8 95 10 28 2 50 5 50 5 0 1 14 3 30 4 17 2 48 6 70 10 22 4 60 9 85 12 25
3 59 7 75 9 27 3 73 11 130 22 11 2 36 6 55 9 19 2 58 9 85 14 28 5 61 11 75
14 14 2 36 7 50 10 25 6 60 13 115 22 17 3 57 12 90 20 33 8 71 17 85 20 22 5
268 69 295 78 6 1 30 8 55 15 110 30 336 105 349 115 8 6 17 10 20 10 12 -3
130 39 246 86 47 20 223 93 255 107 142 61 647 319 785 400 22 13 55 31 74 39
19 9 40 22 48 30 8 8 21 14 29 14 8 0 14 4 14 9 0 5 8 11 18 14 9 3 40 19 67
35 28 16 106 61 175 101 69 39 132 76 140 81 55 33 255 146 428 242 184 102
526 268 722 350 52 22 114 49 137 59 24 10 48 19 53 19 6 0 30 10 53 21 23 12
42 21 42 20 0 -3 19 3 95 30 36 13 67 24 70 24 3 0 11 4 18 8 6 5 12 6 12 3 0
-3 20 3 45 14 25 11 45 17 45 14 0 -2 9 0 21 6 11 6 28 13 37 15 9 2 73 19
142 39 69 20 132 38 140 39 8 2 21 6 28 10 6 5 12 6 12 3 0 -3 21 1 48 9 26 7
61 16 77 19 17 3 57 12 90 20 33 8 60 14 60 14 0 0 11 3 25 6 14 3 39 8 55 11
60 10 201 35 225 40 14 3 41 7 60 10 19 3 46 7 60 9 14 3 63 10 110 16 47 6
99 13 115 16 44 6 124 15 170 18 22 2 65 6 95 10 30 3 91 8 135 11 44 3 105 8
135 10 313 25 1343 25 1367 1 3 -3 13 -1 23 4 10 5 21 6 24 2 4 -4 24 -8 44
-9 20 -1 71 -4 112 -7 41 -4 103 -8 138 -11 34 -3 81 -7 105 -10 49 -7 104
-13 167 -20 25 -2 56 -6 70 -9 14 -2 48 -7 75 -11 65 -7 97 -13 225 -35 58
-11 116 -21 130 -24 74 -13 124 -22 158 -30 71 -17 121 -28 142 -32 14 -3 86
-21 160 -41 74 -19 140 -36 145 -38 6 -1 17 -5 25 -8 29 -11 155 -49 175 -53
23 -4 341 -117 389 -138 17 -7 81 -34 141 -59 191 -79 254 -108 500 -233 342
-174 370 -188 373 -196 2 -5 10 -8 17 -8 7 0 15 -3 17 -7 2 -5 21 -17 43 -29
22 -11 74 -40 115 -64 41 -24 93 -53 115 -65 22 -11 63 -35 90 -52 28 -18 53
-31 56 -30 4 1 15 -5 25 -14 11 -9 26 -19 34 -23 8 -3 38 -20 65 -37 28 -16
58 -33 68 -36 9 -3 17 -9 17 -14 0 -5 4 -9 9 -9 9 0 172 -90 181 -100 3 -3 23
-14 45 -25 22 -11 73 -39 113 -62 39 -23 72 -40 72 -37 0 3 12 -3 28 -14 24
-16 465 -240 477 -242 10 -2 82 -33 211 -91 26 -11 54 -22 63 -24 9 -2 30 -10
46 -18 28 -15 208 -85 230 -91 42 -10 90 -28 127 -47 10 -5 27 -9 38 -9 11 0
28 -4 38 -10 9 -5 58 -21 107 -35 50 -15 106 -32 125 -38 19 -6 40 -12 45 -13
6 -1 44 -11 85 -22 41 -12 86 -23 100 -26 14 -2 52 -11 85 -19 33 -9 71 -18
85 -21 14 -2 32 -7 40 -10 8 -3 29 -7 45 -10 26 -4 124 -22 220 -41 17 -3 44
-8 60 -11 17 -3 71 -12 120 -20 50 -9 106 -18 125 -20 40 -6 66 -9 130 -18 96
-14 279 -34 360 -41 36 -3 97 -8 135 -11 160 -15 816 -8 910 10 11 2 54 7 95
11 41 4 77 9 80 10 3 2 26 6 50 10 25 3 87 15 139 26 51 12 101 22 110 24 9 2
30 8 46 15 17 6 30 10 30 9 0 -6 210 67 213 74 2 4 11 7 20 7 40 0 382 189
382 211 0 5 5 9 12 9 14 0 20 6 129 113 85 84 149 168 181 239 9 21 14 39 10
42 -4 2 -50 7 -102 10 -52 4 -113 9 -135 12 -80 10 -91 12 -135 18 -42 6 -57
9 -120 21 -14 3 -36 7 -50 10 -56 11 -72 14 -92 21 -11 3 -30 7 -41 9 -49 6
-375 97 -437 122 -8 3 -19 7 -25 8 -10 3 -68 24 -185 67 -65 24 -83 31 -130
51 -19 9 -47 19 -62 22 -16 4 -28 12 -28 18 0 6 -2 8 -6 5 -6 -6 -148 55 -338
146 -65 31 -120 56 -122 56 -3 0 -22 11 -44 25 -22 14 -40 23 -40 21 0 -3 -26
10 -57 27 -32 18 -85 46 -118 62 -33 17 -61 33 -63 38 -2 4 -10 7 -17 7 -7 0
-15 3 -17 8 -1 4 -19 15 -38 24 -63 31 -321 179 -408 234 -29 19 -54 34 -57
34 -2 0 -26 13 -52 30 -52 32 -58 36 -116 75 -21 14 -40 25 -43 25 -2 0 -27
16 -54 35 -27 19 -52 35 -55 35 -6 0 -548 361 -555 370 -3 4 -12 9 -20 13 -8
4 -62 41 -120 82 -58 41 -145 102 -195 136 -49 34 -92 65 -95 68 -3 3 -34 26
-70 50 -36 25 -67 48 -70 51 -3 4 -32 25 -65 47 -33 23 -108 76 -167 120 -58
43 -116 85 -129 93 -12 8 -34 24 -48 36 -14 11 -60 44 -101 74 -41 30 -79 58
-85 62 -5 5 -39 30 -75 56 -36 26 -66 50 -68 54 -2 5 -8 8 -12 8 -9 0 -159
110 -194 142 -11 10 -23 18 -27 18 -3 0 -31 19 -62 43 -30 23 -65 49 -77 57
-12 8 -28 20 -34 25 -6 6 -34 26 -61 45 -28 19 -51 38 -53 42 -2 4 -10 8 -17
8 -7 0 -15 4 -17 8 -2 4 -64 52 -138 105 -74 54 -143 104 -153 112 -9 8 -20
15 -23 15 -4 0 -112 78 -124 90 -3 3 -12 10 -21 15 -31 19 -191 130 -203 140
-17 16 -525 355 -531 355 -3 0 -11 5 -18 11 -17 14 -270 169 -342 209 -33 18
-62 36 -65 39 -17 21 -494 257 -609 302 -58 23 -112 46 -118 51 -7 6 -13 8
-13 4 0 -3 -17 0 -37 8 -41 15 -65 23 -73 24 -3 0 -18 6 -35 12 -31 13 -119
36 -170 46 -50 10 -60 12 -60 14 0 1 -13 3 -30 6 -16 2 -52 7 -80 11 -58 9
-373 9 -455 0 -112 -13 -155 -19 -161 -23 -4 -2 -24 -6 -45 -10 -22 -3 -64
-12 -94 -20 -30 -8 -62 -17 -70 -19 -8 -2 -16 -4 -17 -5 -2 -2 -7 -4 -13 -5
-5 -1 -11 -3 -12 -5 -2 -1 -10 -3 -18 -5 -69 -13 -344 -147 -380 -185 -3 -3
-23 -17 -45 -31 -83 -54 -224 -190 -300 -289 -28 -36 -53 -67 -56 -70 -3 -3
-14 -18 -23 -35 -9 -16 -25 -43 -36 -60 -11 -16 -25 -41 -32 -55 -7 -14 -15
-27 -18 -30 -27 -26 -164 -361 -185 -455 -2 -11 -17 -69 -33 -130 -16 -60 -30
-114 -31 -120 -1 -5 -4 -19 -6 -30 -3 -11 -7 -31 -9 -45 -3 -14 -7 -35 -10
-46 -2 -12 -7 -37 -10 -55 -3 -19 -10 -49 -15 -66 -5 -18 -8 -33 -5 -33 7 0
-29 -85 -44 -103 -14 -16 -16 -15 -33 12 -15 25 -35 97 -54 201 -3 14 -8 36
-11 50 -7 29 -12 55 -19 90 -10 52 -13 67 -29 125 -9 33 -18 69 -20 80 -11 61
-95 305 -127 367 -11 21 -16 38 -13 38 4 0 0 8 -8 18 -8 9 -27 42 -42 72 -37
76 -110 199 -126 210 -4 3 -11 12 -16 21 -32 56 -204 237 -290 305 -51 40
-182 124 -193 124 -5 0 -11 3 -13 8 -5 12 -177 88 -273 120 -88 29 -246 65
-335 76 -25 4 -56 9 -70 12 -30 7 -415 15 -421 9z"/>
</g>
</svg>
