<?xml version="1.0" encoding="utf-8"?>
<!-- Generator: Adobe Illustrator 21.1.0, SVG Export Plug-In . SVG Version: 6.00 Build 0)  -->
<svg version="1.1" id="Слой_1" xmlns="http://www.w3.org/2000/svg" xmlns:xlink="http://www.w3.org/1999/xlink" x="0px" y="0px"
	 viewBox="0 0 3118.5 871.5" style="enable-background:new 0 0 3118.5 871.5;" xml:space="preserve">
<style type="text/css">
	.st0{display:none;}
	.st1{display:inline;}
	.st2{display:inline;clip-path:url(#SVGID_2_);fill:#FFFFFF;}
	.st3{fill:#FFFFFF;}
	.st4{fill:none;}
</style>
<g class="st0">
	<defs>
		<path id="SVGID_1_" d="M0-27.6h3118.1v850.4H0V-27.6z M-141.7-169.3V964.5l3401.6,0V-169.3H-141.7z"/>
	</defs>
	<clipPath id="SVGID_2_" class="st1">
		<use xlink:href="#SVGID_1_"  style="overflow:visible;"/>
	</clipPath>
	<polygon class="st2" points="2997.7,1146.1 4562.8,-419.1 4362.4,-419.1 2797.2,1146.1 	"/>
	<polygon class="st2" points="2536.3,1146.1 4101.4,-419.1 3901,-419.1 2335.9,1146.1 	"/>
	<polygon class="st2" points="2074.9,1146.1 3640.1,-419.1 3439.6,-419.1 1874.5,1146.1 	"/>
	<polygon class="st2" points="1613.5,1146.1 3178.7,-419.1 2978.2,-419.1 1413.1,1146.1 	"/>
	<polygon class="st2" points="1152.1,1146.1 2717.3,-419.1 2516.8,-419.1 951.7,1146.1 	"/>
	<polygon class="st2" points="690.7,1146.1 2255.9,-419.1 2055.4,-419.1 490.3,1146.1 	"/>
	<polygon class="st2" points="229.4,1146.1 1794.5,-419.1 1594.1,-419.1 28.9,1146.1 	"/>
	<polygon class="st2" points="-232,1146.1 1333.1,-419.1 1132.7,-419.1 -432.5,1146.1 	"/>
	<polygon class="st2" points="-693.4,1146.1 871.7,-419.1 671.3,-419.1 -893.9,1146.1 	"/>
	<polygon class="st2" points="-1154.8,1146.1 410.3,-419.1 209.9,-419.1 -1355.3,1146.1 	"/>
</g>
<g>
	<path d="M1379.1,428.3c-11.6,56.2-23.1,112.2-34.6,168.1c23.3-0.4,46.6-0.8,70-1.1C1402.7,539.4,1391,483.7,1379.1,428.3z"/>
	<path d="M774.9,496.5c-0.4-22.3-4.7-40-12.8-52.8c-8.2-12.8-18.8-18.1-31.9-16c-5.8,0.9-13.6,3.8-23.4,8.6
		c0.9,48.1,1.7,96.1,2.6,144.2c1.9-0.2,3.5-0.3,4.9-0.3c1.4,0,2.5-0.1,3.4-0.2c19.3-1.7,33.8-10.2,43.4-25.7
		C770.7,538.6,775.3,519.3,774.9,496.5z"/>
	<path d="M2170,560.6c19.4,1.2,34.1-5.8,44.2-20.7c10.1-14.9,15.3-34.3,15.7-58.5c0.4-23.6-3.3-43.1-11.1-58.8
		c-7.7-15.7-18.2-24.4-31.3-25.8c-5.8-0.7-13.7,0.3-23.7,2.8c-0.7,53.4-1.5,106.8-2.2,160.2c1.9,0.1,3.5,0.3,4.9,0.4
		C2167.9,560.4,2169.1,560.5,2170,560.6z"/>
	<path d="M1198.7,572c-9.8-8-21.8-11.7-36.2-11.1c-6.2,0.3-11.5,0.7-15.9,1.2c-4.4,0.6-7.9,1.4-10.6,2.5
		c0.6,54.6,1.2,109.3,1.8,163.9c11.6,5.2,23.1,7.8,34.3,7.8c18-0.1,31.7-8.3,41.1-24.6c9.3-16.3,13.9-36.5,13.7-60.5
		c-0.1-15.8-2.4-30.9-6.8-45.4C1215.6,591.3,1208.5,580.1,1198.7,572z"/>
	<path d="M1148.4,540c4.8,0.5,10,0.6,15.7,0.3c14.6-0.6,25.6-4.2,32.9-10.8c7.3-6.6,12.9-16.4,16.6-29.6c3.8-13.1,5.6-27.4,5.5-42.8
		c-0.2-23.8-5.3-43.8-15.2-59.9c-9.9-16.1-24.2-23.4-42.9-22c-10,0.8-19.1,3.7-27.1,8.6c0.6,51.2,1.1,102.4,1.7,153.6
		C1139.4,538.7,1143.7,539.6,1148.4,540z"/>
	<path d="M1843.5,710.9c9.6-16.4,14.5-36.7,14.7-60.9c0.1-15.9-1.9-31.3-6.1-46.1c-4.2-14.8-11.1-26.6-20.8-35.3
		c-9.7-8.7-21.7-13.3-36-13.6c-6.2-0.1-11.5,0-15.9,0.3c-4.4,0.3-8,1-10.7,1.9c-0.3,56.6-0.6,113.3-0.8,169.9
		c11.5,5.5,22.9,8.3,34.2,8.4C1820.1,735.6,1833.9,727.4,1843.5,710.9z"/>
	<path d="M1768.8,529.1c3.7,1.5,7.9,2.7,12.7,3.5c4.8,0.8,10,1.3,15.7,1.4c14.6,0.3,25.7-2.6,33.1-8.7c7.4-6.2,13.1-15.7,17.1-28.7
		c4-13,6.1-27.3,6.2-42.8c0.2-24-4.6-44.7-14.2-62.2c-4.1-7.5-9.1-13.4-14.9-17.8h-54.9C1769.4,425.5,1769.1,477.3,1768.8,529.1z"/>
	<path d="M895.9,568.4c0.9,61.1,8.8,107.7,23.4,140.6c11.3,25,25.8,37.6,43.6,37.5c19-0.1,34.6-14.2,46.6-42.9
		c12-28.6,17.7-73.8,16.9-135.3c-0.9-66.6-8.4-115.9-22.6-147.1c-11.4-24.8-26.8-36-46.2-33.7c-18.2,2.1-32.7,16.5-43.3,42.8
		C901.2,463,895,508.9,895.9,568.4z"/>
	<path d="M2800.8,752.2c19,0.2,34.9-9.5,47.6-28.2c12.7-18.8,19.2-48,19.8-88.6c0.6-44-5.7-78-18.9-103.1
		c-10.6-19.9-25.4-32.6-44.5-37.2c-17.9-4.3-32.5,1.6-43.7,18.2c-13.9,20.6-21.3,54.5-22.1,100.5c-0.8,47.1,5.6,84,19.3,109.4
		C2768.8,742.6,2783,752,2800.8,752.2z"/>
	<path d="M199.6,587.4c-0.1-14.8-4.2-26-12.1-33.2c-7.9-7.2-18.2-9-31.1-5.5c-5.7,1.5-13.4,4.6-23,9.3l0.5,91.1
		c1.9-0.3,3.5-0.5,4.9-0.7c1.4-0.1,2.5-0.3,3.4-0.4c19.1-2.8,33.5-9.6,43.2-20.8C195,616,199.8,602.6,199.6,587.4z"/>
	<path d="M1519,0.3c-0.1,0-0.3,0-0.4,0C1518.7,0.3,1518.8,0.3,1519,0.3z"/>
	<path d="M1621.9,0.6c-1,0-1.9,0-2.9-0.1C1619.9,0.6,1620.9,0.6,1621.9,0.6z"/>
	<path d="M1600.4,0.3c-0.1,0-0.3,0-0.4,0C1600.1,0.3,1600.3,0.3,1600.4,0.3z"/>
	<path d="M1500,0.6c-1,0-1.9,0-2.9,0.1C1498,0.6,1499,0.6,1500,0.6z"/>
	<path d="M1482.4,1c-2.9,0.1-5.7,0.2-8.6,0.2C1476.7,1.2,1479.5,1.1,1482.4,1z"/>
	<path d="M1083.1,373.1c-2.5,0.2-5,0.5-7.5,0.7h14.3C1087.9,373.1,1085.6,372.8,1083.1,373.1z"/>
	<path d="M1645.1,1.2c-2.8-0.1-5.7-0.2-8.5-0.2C1639.4,1.1,1642.3,1.1,1645.1,1.2z"/>
	<path d="M3119,373.8c-0.2,0-0.3,0-0.5,0v0H3119z"/>
	<path d="M1769.6,369.9c0,1.3,0,2.6,0,3.9h54.9c-7.7-5.9-16.9-9.1-27.6-9.5C1786.8,363.8,1777.7,365.7,1769.6,369.9z"/>
	<path d="M1563.3,542.2c1.9,0,3.6,0,5,0.1c1.4,0.1,2.6,0.2,3.5,0.2c19.4,0,34.1-8.6,44-25.8c9.9-17.2,14.9-39.1,14.9-65.8
		c0-26.1-3.9-47.3-11.9-63.7c-2.6-5.3-5.5-9.8-8.6-13.4h-46.9C1563.2,429.9,1563.2,486,1563.3,542.2z"/>
	<path d="M1586.9,362.5c-5.8,0-13.7,1.9-23.7,5.9c0,1.8,0,3.6,0,5.4h46.9C1603.5,366.3,1595.8,362.5,1586.9,362.5z"/>
	<path d="M3000.4,651c10.3,1.5,19.1-1.6,26.6-9c7.5-7.3,11.2-17.5,11.3-30.8c0-9.2-1.7-18.1-5.2-26.9c-3.5-8.8-8.5-16.1-14.9-21.8
		c-6.4-5.7-13.8-9.8-22-12c-5-1.3-11.4-2-19.3-1.9c-0.3,31.8-0.5,63.7-0.8,95.5c5.2,1.9,9.9,3.4,13.9,4.5
		C2994.1,649.8,2997.6,650.6,3000.4,651z"/>
	<path class="st3" d="M251.3,743.7c-6.9-5.2-15.3-15.9-25-31.4c-14.2-22.5-28.3-43.9-42.3-64.3c16.9-6.7,29.2-16.1,37.2-28.3
		c7.9-12.2,11.8-26.1,11.6-41.2c-0.2-14.1-3.8-25.6-11-34c-7.1-8.4-15.7-13-25.8-14c-10.1-1-25.7,1.6-46.8,7.6
		c-24.1,6.9-48.3,13.9-72.3,21.2v5.5c2.5-0.7,5-1.5,7.5-2.2c7.5-2.2,13.2-1.6,17,1.9c2.7,2.4,4.1,10.3,4.2,23.6
		c0.1,45.4,0.3,90.9,0.4,136.3c0,12-1,19.7-3.1,23c-3.7,5.9-9.8,8.8-18.3,8.9c-2.5,0-5.1,0.1-7.6,0.1v5.5
		c28.9-0.2,57.9-0.4,86.8-0.6c0-2.1,0-4.1,0-6.2c-2.6,0-5.3,0.1-7.9,0.1c-7.6,0.1-13.3-2.2-17.1-6.9c-2.8-3.3-4.2-11.8-4.3-25.6
		c-0.1-21.2-0.2-42.4-0.3-63.6c1.6-0.1,3.1-0.2,4.6-0.4c1.5-0.1,2.9-0.3,4.1-0.5c3.2-0.4,7.3-1.1,12.3-2c22.9,32,46,66.9,69.3,104.7
		c18-0.1,36.1-0.2,54.1-0.3c0-2.3-0.1-4.7-0.1-7C267.3,752.3,258.3,749,251.3,743.7z M142.2,647.9c-0.9,0.1-2,0.3-3.4,0.4
		c-1.4,0.2-3,0.4-4.9,0.7l-0.5-91.1c9.7-4.6,17.3-7.8,23-9.3c12.8-3.4,23.2-1.7,31.1,5.5c7.9,7.2,11.9,18.4,12.1,33.2
		c0.2,15.2-4.6,28.6-14.2,39.7C175.8,638.4,161.4,645.1,142.2,647.9z"/>
	<path class="st3" d="M430.2,726.9c-4.7,6.9-9.6,11.5-14.7,13.9c-5.1,2.4-13.4,3.6-24.9,3.8c-11.5,0.2-22.9,0.4-34.4,0.6
		c-5.6,0.1-9.4-0.6-11.4-2.1c-2-1.5-3.4-3.5-4.3-6.1c-0.8-2.6-1.4-9.9-1.5-21.9c-0.5-29.9-0.9-59.7-1.4-89.6
		c14.8-1.8,29.5-3.6,44.3-5.4c8.4-1,14.7-0.3,18.8,2c4.1,2.4,7.1,5.9,9,10.7c1.5,3.8,3,12.7,4.6,26.7c1.8-0.2,3.7-0.3,5.5-0.5
		c-0.6-33.7-1.2-67.4-1.8-101.1c-1.8,0.3-3.7,0.6-5.5,0.9c-0.3,16.6-3,28.5-8,35.7c-3.8,5.5-11.4,8.9-22.9,10.4
		c-14.8,1.9-29.5,3.9-44.3,5.9c-0.6-35.8-1.1-71.6-1.7-107.4c18.3-4.3,36.7-8.4,55.1-12.5c10-2.2,17-2.7,20.9-1.4
		c5,1.9,8.8,5.5,11.4,10.7c2.6,5.2,5.1,15.3,7.5,30.4c1.9-0.3,3.9-0.7,5.8-1c-1.1-21.4-2.2-42.7-3.4-64
		c-51.7,11.6-103.2,24-154.5,37.3c0,2.3,0.1,4.7,0.1,7c2.4-0.6,4.7-1.2,7.1-1.8c8.3-2.1,14.2-0.9,17.8,3.4
		c2.6,3.3,4.1,13.3,4.3,30.1c0.9,57.3,1.7,114.7,2.6,172c0.2,12.9-0.3,21.4-1.3,25.6c-1.1,4.2-3.2,7.3-6.4,9.5
		c-4.2,3-8.7,4.6-13.5,4.6c-2.4,0-4.8,0.1-7.2,0.1c0,2.3,0.1,4.7,0.1,7c52.1-0.3,104.1-0.6,156.2-0.8c5.4-24.6,10.8-49.5,16.1-74.8
		c-2,0.1-4,0.2-6,0.4C442.2,704,436.2,717.8,430.2,726.9z"/>
	<path class="st3" d="M468.9,457.8c-0.4,23.8-0.7,47.5-1.1,71.2c1.9-0.3,3.8-0.6,5.7-0.9c0.4-13.8,2.4-25,5.9-33.8
		c3.5-8.8,7.8-15.1,12.9-19c3.9-2.9,10.6-5.3,20-7.1c8.1-1.6,16.2-3.1,24.2-4.7c1.5,80.4,3,160.8,4.5,241.2
		c0.3,17.7-0.6,29.1-2.7,34c-3.4,8.1-9.4,12.2-18,12.3c-2.4,0-4.8,0-7.2,0.1c0.1,2.8,0.1,5.6,0.2,8.5c28.6-0.1,57.3-0.3,85.9-0.4
		c-0.1-3-0.1-5.9-0.2-8.9c-2.3,0-4.7,0-7,0.1c-7.9,0.1-13.8-3.2-17.7-9.8c-2.8-4.9-4.4-17.2-4.7-36.9c-1.5-81.8-3-163.7-4.6-245.5
		c9.5-1.8,19-3.5,28.5-5.2c8.3-1.5,15.1-0.5,20.3,3.1c5.2,3.6,9.4,9.9,12.7,18.9c2,5.6,3.7,15.2,5,28.8c1.9-0.3,3.8-0.5,5.7-0.8
		c-1.2-26-2.5-52.1-3.7-78C578.6,434.9,523.7,445.9,468.9,457.8z"/>
	<path class="st3" d="M829.3,733.2c-7-7.8-15.5-23.6-25.5-47.1c-14.5-34.1-29.1-67.6-43.6-100.4c16.9-8,29.3-20.4,37.2-37.5
		c7.9-17,11.6-36.8,11.2-59.1c-0.4-20.8-4.2-38.4-11.6-52.4c-7.4-14-16.3-23-26.6-26.9c-10.3-4-26.3-4.2-47.8-0.6
		c-24.6,4.1-49.2,8.4-73.8,12.8c0.1,3.1,0.1,6.1,0.2,9.2c2.5-0.4,5.1-0.9,7.6-1.3c7.7-1.3,13.5,1.3,17.5,8.1
		c2.9,4.7,4.5,17.9,4.9,39.4c1.3,73.6,2.7,147.3,4,220.9c0.4,19.5-0.5,31.9-2.5,37.1c-3.5,9.5-9.6,14.2-18.1,14.3
		c-2.5,0-5.1,0-7.6,0.1c0.1,3.1,0.1,6.1,0.2,9.2c28.9-0.1,57.9-0.2,86.8-0.3c-0.1-3.2-0.1-6.4-0.2-9.6c-2.6,0-5.3,0-7.9,0.1
		c-7.6,0.1-13.3-3.7-17.2-11.1c-2.9-5.3-4.5-18.8-4.9-40.6c-0.6-33.6-1.2-67.2-1.8-100.7c1.6,0,3.1,0,4.6,0c1.5,0,2.9-0.1,4.2-0.2
		c3.2-0.3,7.3-0.8,12.4-1.5c23.8,52.8,47.7,107.3,71.5,163.5c18-0.1,36.1-0.1,54.1-0.2c-0.1-3.4-0.1-6.7-0.2-10.1
		C845.3,746,836.3,741,829.3,733.2z M717.8,579.9c-0.9,0.1-2,0.1-3.4,0.2c-1.4,0-3,0.1-4.9,0.3c-0.9-48.1-1.7-96.1-2.6-144.2
		c9.8-4.8,17.6-7.7,23.4-8.6c13.1-2,23.7,3.3,31.9,16c8.2,12.8,12.5,30.4,12.8,52.8c0.4,22.8-4.2,42.2-13.8,57.8
		C751.6,569.8,737.1,578.3,717.8,579.9z"/>
	<path class="st3" d="M892.4,424.3c-21.4,40.2-31.6,89-30.7,147.7c0.9,57.4,11.2,103.6,30.8,139.8c19.6,36.2,43.3,54.8,71.2,54.8
		c27.6,0,50.8-19.2,69.8-58.7c18.9-39.4,28.1-89.4,27.3-149.1c-0.7-58-11-105.8-30.9-142.4c-11.2-20.6-23.4-34.7-36.6-42.7h-55.5
		C920.6,382.8,905.5,399.7,892.4,424.3z M957.7,387.5c19.4-2.3,34.9,8.9,46.2,33.7c14.2,31.2,21.7,80.5,22.6,147.1
		c0.8,61.5-4.8,106.7-16.9,135.3c-12,28.6-27.6,42.7-46.6,42.9c-17.8,0.1-32.4-12.5-43.6-37.5c-14.7-32.9-22.5-79.5-23.4-140.6
		c-0.9-59.6,5.2-105.4,18.5-138.1C925,404.1,939.5,389.7,957.7,387.5z"/>
	<path class="st3" d="M960.3,366.6c-7.9,1-15.4,3.4-22.5,7.1h55.5C982.9,367.6,971.9,365.2,960.3,366.6z"/>
	<path class="st3" d="M1100.8,384.3c3,6.2,4.6,21.6,4.9,46.2c1,85.5,2,171.1,2.9,256.6c0.3,22.3-0.7,36.8-2.9,43.7
		c-3.6,10.6-9.6,15.9-18.1,15.9c-2.5,0-5.1,0-7.6,0c0,3.6,0.1,7.2,0.1,10.8c31.9-0.1,63.8-0.1,95.7-0.2c22.8,0,39.8-4.3,50.8-12.8
		c11-8.5,19.7-22.1,25.9-40.7c6.2-18.6,9.3-38.1,9.1-58.4c-0.2-26.7-5.2-49.2-15.1-67.4c-7.1-13-17.8-22.3-31.9-27.8
		c12-8.2,21.1-20.5,27.2-36.9c6.1-16.4,9-34.8,8.9-55.3c-0.2-23.9-4.3-44.8-12.4-62.7c-3.9-8.6-8.6-15.8-14.1-21.7H1090
		C1094.4,375.2,1098,378.7,1100.8,384.3z M1220,605.8c4.4,14.5,6.7,29.6,6.8,45.4c0.2,24-4.4,44.2-13.7,60.5
		c-9.3,16.3-23,24.5-41.1,24.6c-11.3,0.1-22.7-2.5-34.3-7.8c-0.6-54.6-1.2-109.3-1.8-163.9c2.7-1.1,6.2-1.9,10.6-2.5
		c4.4-0.6,9.7-1,15.9-1.2c14.3-0.6,26.4,3.1,36.2,11.1C1208.5,580.1,1215.6,591.3,1220,605.8z M1161.1,375.3
		c18.7-1.4,33,5.9,42.9,22c9.9,16.1,14.9,36.1,15.2,59.9c0.1,15.4-1.7,29.7-5.5,42.8c-3.8,13.1-9.3,23-16.6,29.6
		c-7.3,6.6-18.3,10.1-32.9,10.8c-5.7,0.3-10.9,0.1-15.7-0.3c-4.8-0.5-9-1.3-12.7-2.5c-0.6-51.2-1.1-102.4-1.7-153.6
		C1142.1,379,1151.1,376.1,1161.1,375.3z"/>
	<path class="st3" d="M1075.7,373.8h-0.2c0,0,0,0,0,0C1075.5,373.8,1075.6,373.8,1075.7,373.8z"/>
	<path class="st3" d="M1083.1,373.1c2.5-0.2,4.8,0,6.8,0.7h134.1c-6-6.4-12.9-11.1-20.8-14.3c-10-4.1-23.2-5.5-39.7-4.2
		c-29.5,2.3-58.9,4.9-88.3,7.7c0,3.6,0.1,7.2,0.1,10.7h0.2C1078.2,373.5,1080.7,373.3,1083.1,373.1z"/>
	<path class="st3" d="M1297.9,734.2c-2.5,4.9-7.9,8.8-16.4,11.9c0,3.7,0.1,7.5,0.1,11.2c21.3,0,42.6-0.1,63.8-0.1
		c0-3.8,0-7.5-0.1-11.3c-9.8-1.4-16.2-4.5-19.1-9.2c-3-4.7-4.5-10.3-4.5-16.5c0-7.9,1.6-19.8,4.9-35.9c4.5-21.7,8.9-43.5,13.4-65.3
		c26.3-0.4,52.5-0.8,78.8-1c4.2,19.9,8.4,39.8,12.5,59.7c4.1,19.4,6.1,33.6,6.1,42.6c0,6.8-1.4,12.5-4.2,17.2
		c-2.8,4.7-8.3,7.5-16.3,8.3c0,3.8,0,7.6,0,11.3c26.7,0,53.3,0,80,0c0-3.8,0-7.6,0-11.4c-8.3-1-14.7-5.7-19.4-14
		c-4.7-8.3-9.9-26.4-15.6-54.2c-21.1-101.7-42.3-203-63.6-303.7h-22.3c-20.6,100.9-41.1,201.4-61.5,301.2
		C1308.4,704.7,1302.9,724.4,1297.9,734.2z M1379.1,428.3c11.8,55.5,23.6,111.2,35.4,167c-23.3,0.3-46.6,0.6-70,1.1
		C1356,540.5,1367.5,484.4,1379.1,428.3z"/>
	<path class="st3" d="M1389.5,332.8c-1.8,0.1-3.5,0.1-5.3,0.2c-2.8,13.6-5.6,27.2-8.3,40.7h22.3
		C1395.3,360.1,1392.4,346.5,1389.5,332.8z"/>
	<path class="st3" d="M1534.7,683.1c0,23.8-1,38.9-3.1,45.3c-3.7,11.5-9.8,17.3-18.4,17.3c-2.5,0-5.1,0-7.6,0c0,3.8,0,7.6,0,11.4
		c29,0,57.9,0,86.9,0c0-3.8,0-7.6,0-11.4c-2.6,0-5.3,0-7.9,0c-7.6,0-13.3-4.5-17.1-13.6c-2.8-6.4-4.2-22.7-4.2-49
		c0-40.5,0-81,0-121.5c1.6,0.2,3.2,0.4,4.7,0.5c1.5,0.1,2.9,0.2,4.2,0.2c3.2,0,7.4-0.2,12.5-0.6c23,65.2,45.8,130.4,68.6,195.4
		c18,0,36.1,0,54.1,0c0-3.8,0-7.6,0-11.4c-11.1-2.5-20-8.2-26.9-17.2c-6.9-9-15-27.3-24.6-54.8c-13.9-40-27.8-80-41.8-120
		c17.1-7.7,29.8-21,38-39.8c8.2-18.8,12.4-41,12.4-66.6c0.1-24-3.5-44.7-10.7-62.2c-1.7-4.1-3.4-7.8-5.3-11.3h-38.5
		c3.1,3.6,6,8,8.6,13.4c8,16.4,11.9,37.6,11.9,63.7c0,26.7-5,48.6-14.9,65.8c-9.9,17.2-24.6,25.8-44,25.8c-0.9,0-2.1-0.1-3.5-0.2
		c-1.4-0.1-3.1-0.1-5-0.1c0-56.1,0-112.3,0-168.4h-30.7c1.3,8.7,1.9,21.8,1.9,39.4C1534.5,503.1,1534.6,593.1,1534.7,683.1z"/>
	<path class="st3" d="M1563.2,368.3c10-3.9,17.9-5.9,23.7-5.9c8.9,0,16.6,3.8,23.2,11.3h38.5c-6.1-11.4-13-19.7-21-24.8
		c-10.3-6.6-26.4-9.9-48.1-10c-24.9,0-49.8,0.1-74.7,0.5c0,3.8,0,7.6,0,11.4c2.6,0,5.1-0.1,7.7-0.1c7.8-0.1,13.6,4.4,17.5,13.4
		c0.9,2.1,1.7,5.3,2.3,9.6h30.7C1563.2,371.9,1563.2,370.1,1563.2,368.3z"/>
	<path class="st3" d="M1740.4,415.2c-0.4,89.4-0.8,178.9-1.1,268.4c-0.1,23.3-1.3,38.5-3.6,45.6c-3.7,11-9.8,16.5-18.3,16.5
		c-2.5,0-5.1,0-7.6,0c0,3.8,0,7.6,0,11.4c31.9,0,63.8,0,95.7,0.1c22.8,0,39.8-4.3,51-12.8c11.2-8.5,20-22.1,26.6-40.6
		c6.5-18.5,9.9-37.9,10-58.2c0.2-26.7-4.5-49.4-14-68.1c-6.9-13.5-17.4-23.4-31.5-29.9c12.2-7.5,21.4-19.3,27.8-35.3
		c6.3-16,9.6-34.2,9.8-54.7c0.2-23.9-3.6-45.3-11.4-64.1c-3.1-7.4-6.7-13.9-10.9-19.7h-38.3c5.8,4.4,10.8,10.4,14.9,17.8
		c9.6,17.4,14.4,38.1,14.2,62.2c-0.1,15.6-2.2,29.8-6.2,42.8c-4,13-9.7,22.6-17.1,28.7c-7.4,6.2-18.4,9.1-33.1,8.7
		c-5.7-0.1-10.9-0.6-15.7-1.4c-4.8-0.8-9-2-12.7-3.5c0.3-51.8,0.5-103.6,0.8-155.4h-31.4C1739.8,382.4,1740.5,396.3,1740.4,415.2z
		 M1768.7,557.2c2.7-1,6.3-1.6,10.7-1.9c4.4-0.3,9.7-0.4,15.9-0.3c14.3,0.3,26.3,4.9,36,13.6c9.7,8.7,16.6,20.5,20.8,35.3
		c4.2,14.8,6.2,30.2,6.1,46.1c-0.2,24.2-5.1,44.5-14.7,60.9c-9.6,16.4-23.4,24.6-41.5,24.6c-11.3,0-22.7-2.8-34.2-8.4
		C1768.1,670.5,1768.4,613.9,1768.7,557.2z"/>
	<path class="st3" d="M1769.6,369.9c8.1-4.2,17.1-6.1,27.2-5.7c10.7,0.4,19.9,3.6,27.6,9.5h38.3c-6.5-8.9-14.3-15.8-23.4-20.7
		c-9.9-5.4-23.2-8.4-39.7-9.2c-29.5-1.3-59-2.3-88.5-3.1c0,3.8,0,7.6,0,11.4c2.6,0.1,5.1,0.1,7.7,0.2c7.8,0.2,13.6,4.9,17.5,14
		c0.8,1.8,1.4,4.3,2,7.4h31.4C1769.6,372.5,1769.6,371.2,1769.6,369.9z"/>
	<path class="st3" d="M1947.2,422.9c-0.8,87.7-1.6,175.4-2.4,263c-0.2,19.7-0.9,32.7-2.1,39.1c-1.2,6.4-3.4,11.1-6.6,14.3
		c-4.3,4.6-8.9,6.8-13.7,6.8c-2.4,0-4.8,0-7.2,0c0,3.7-0.1,7.4-0.1,11.1c52.1,0.1,104.2,0.2,156.2,0.3c6.2-32.9,12.5-65.7,18.7-98.4
		c-2-0.1-4-0.1-6-0.2c-6.8,24-13.3,42-19.7,54c-4.9,9.1-10,15.2-15.2,18.2c-5.2,3.1-13.6,4.6-25,4.5c-11.5-0.1-22.9-0.1-34.4-0.2
		c-5.6,0-9.4-1.2-11.3-3.5c-2-2.3-3.3-5.4-4.1-9.2c-0.8-3.9-1.1-14.7-0.9-32.5c0.4-44.3,0.9-88.5,1.3-132.8
		c14.9,0.6,29.8,1.2,44.7,1.9c8.5,0.4,14.8,2.6,18.8,6.7c4.1,4.1,6.9,9.6,8.7,16.5c1.3,5.5,2.6,18,3.8,37.3c1.8,0.1,3.7,0.1,5.5,0.2
		c0.5-45.9,1.1-91.9,1.6-137.8c-1.9-0.1-3.7-0.2-5.6-0.4c-0.9,22.6-4,38.2-9.3,46.9c-4,6.6-11.8,9.7-23.4,9.1
		c-14.9-0.7-29.8-1.4-44.8-2.1c0.5-53.1,1.1-106.1,1.6-159.2c18.7,1.4,37.4,2.8,56,4.4c10.1,0.9,17.2,2.9,21.2,6.2
		c5,4.5,8.7,10.8,11.2,18.8c2.5,8,4.6,22.5,6.5,43.4c2,0.1,3.9,0.3,5.9,0.4c-0.4-25.3-0.7-50.7-1.1-76h-133.2
		c0.2,0.5,0.4,0.9,0.7,1.4C1946.3,381.3,1947.5,397.2,1947.2,422.9z"/>
	<path class="st3" d="M2076.1,363.3c-52.5-5.1-105-9.4-157.5-12.8c0,3.7-0.1,7.4-0.1,11.1c2.4,0.2,4.8,0.3,7.2,0.5
		c7.9,0.5,13.7,4.5,17.3,11.8h133.2C2076.2,370.3,2076.2,366.8,2076.1,363.3z"/>
	<path class="st3" d="M2113.6,377.7c7.7,0.8,13.5,5.6,17.3,14.4c2.7,6.2,3.9,21.5,3.6,46l-3.3,250.9c-0.3,22.1-1.5,36.2-3.7,42.1
		c-3.8,10.7-10,16-18.6,16c-2.5,0-5.1,0-7.6,0c0,3.6-0.1,7.1-0.1,10.7c29,0.1,57.9,0.1,86.9,0.2c0.1-3.5,0.1-6.9,0.2-10.4
		c-2.6,0-5.3,0-7.9,0c-7.6,0-13.2-4.2-16.9-12.6c-2.7-5.9-3.9-21-3.6-45.2c0.5-37.3,1-74.6,1.6-111.9c1.6,0.3,3.1,0.5,4.6,0.7
		c1.5,0.2,2.9,0.3,4.2,0.4c3.2,0.2,7.3,0.2,12.4,0.1c22.1,61,44.1,120.8,66.1,179.2c18,0.1,36.1,0.1,54.1,0.2
		c0.1-3.3,0.1-6.7,0.2-10c-11-2.2-19.9-7.4-26.7-15.5c-6.8-8.1-14.7-24.5-23.9-49.4c-13.4-36.2-26.8-72.8-40.3-110
		c17.2-6,30-17.2,38.4-33.5c8.4-16.3,12.8-35.8,13.2-58.7c0.3-21.5-3-40.3-9.9-56.7c-6.9-16.4-15.5-28.2-25.6-35.3
		c-10.2-7.1-26.1-12.1-47.7-14.6c-2-0.2-3.9-0.5-5.9-0.7H2106c0,1.1,0,2.1,0,3.2C2108.5,377.2,2111.1,377.4,2113.6,377.7z
		 M2163.8,399.5c10-2.5,17.9-3.5,23.7-2.8c13.1,1.5,23.6,10.2,31.3,25.8c7.7,15.7,11.4,35.2,11.1,58.8c-0.4,24.1-5.6,43.5-15.7,58.5
		c-10.1,14.9-24.8,21.9-44.2,20.7c-0.9-0.1-2.1-0.2-3.4-0.4c-1.4-0.2-3.1-0.3-4.9-0.4C2162.3,506.4,2163.1,452.9,2163.8,399.5z"/>
	<path class="st3" d="M2106.1,366.3c0,2.5-0.1,5-0.1,7.5h68.5C2151.7,371.1,2128.9,368.6,2106.1,366.3z"/>
	<path class="st3" d="M2330.1,750c1.5-2.7,3.5-4,6-4c2.6,0,8.7,2.9,18.3,8.5c9.6,5.6,16,8.8,19,9.7c5.2,1.6,10.7,2.4,16.6,2.4
		c18.7,0,34.2-9.7,46.5-28.5c12.2-18.8,18.6-41,19.1-67.1c0.2-13.7-1.4-26.9-4.9-39.7c-3.5-12.8-8.6-24.1-15.4-34
		c-6.8-9.9-19.5-24.3-38.1-43.9c-22.9-23.9-37.3-43.2-43.2-57.2c-4.1-9.5-6.1-19.8-5.9-30.8c0.2-14.4,3.9-26.8,10.8-37.1
		c7-10.3,15.7-14.6,26-13c9.2,1.4,18,6.9,26.4,16.3c8.4,9.4,14.8,21.3,19.2,35.7c4.4,14.4,7.3,33.1,8.7,56.4
		c1.8,0.2,3.7,0.4,5.5,0.6c0.7-39.9,1.4-79.8,2.2-119.7c-1.8-0.3-3.7-0.6-5.5-1c-1.1,7.8-2.6,13-4.2,15.3c-1.7,2.4-3.8,3.4-6.4,2.9
		c-2.3-0.4-6.2-3.1-11.7-8.4c-11.9-11.1-23.2-17.6-34-19.3c-17.3-2.8-31.7,4.3-43.2,21.5c-11.5,17.2-17.5,39.1-17.9,65.3
		c-0.2,15.1,1.4,29.1,5,42c3.6,12.9,9,24.8,16.1,35.7c7.2,10.9,19.3,25.7,36.3,44c17.1,18.3,27.5,29.9,31.3,35.3
		c5.6,7.9,9.8,16.3,12.3,25.2c2.6,8.9,3.8,17.6,3.6,26.1c-0.3,15.4-4.1,28.6-11.6,39.9c-7.4,11.2-17.4,16.9-29.8,16.8
		c-10.8-0.1-20.6-4.4-29.5-13c-8.9-8.6-15.4-19.4-19.6-32.5c-4.2-13-7.3-32.6-9.5-58.9c-1.8-0.1-3.7-0.2-5.5-0.3
		c-0.7,41.7-1.4,83.3-2.1,125h5.5C2327.4,758.2,2328.6,752.6,2330.1,750z"/>
	<path class="st3" d="M2562.6,750.3c-2.4,0-4.9,0-7.3-0.1c-4.8,0-9.3-2-13.5-5.9c-3.1-2.9-5.2-6.5-6.1-10.5
		c-1.2-5.4-1.6-16.4-1.3-33.1c0.6-33.5,1.2-67,1.9-100.4c31.4,2.9,62.7,6,94,9.2c-0.6,31.6-1.2,63.3-1.8,94.9
		c-0.3,18.7-1.8,30.4-4.4,35.3c-3.9,7.5-10,11.2-18.3,11.1c-2.4,0-4.8,0-7.2-0.1c-0.1,2.9-0.1,5.8-0.2,8.7
		c28.9,0.1,57.8,0.3,86.7,0.4c0-2.7,0.1-5.5,0.1-8.2c-2.4,0-4.8-0.1-7.2-0.1c-4.8-0.1-9.3-1.9-13.7-5.5c-3-2.7-5-6-5.9-9.8
		c-1.2-5-1.7-15.2-1.4-30.7c1.2-65.7,2.4-131.5,3.6-197.2c0.3-15,1-24.9,2.3-29.5c1.2-4.6,3.4-7.9,6.7-9.6c4.3-2.6,8.9-3.3,13.6-2.3
		c2.4,0.5,4.8,1,7.1,1.5c0-2.7,0.1-5.5,0.1-8.2c-28.7-6.3-57.4-12.4-86.2-18.2c-0.1,2.9-0.1,5.8-0.2,8.7c2.4,0.5,4.8,0.9,7.1,1.4
		c4.8,0.9,9.2,3.7,13.4,8.2c3.1,3.4,5.1,7.1,6.1,11.1c1.2,5.3,1.6,15.9,1.4,31.9c-0.5,29.7-1.1,59.4-1.6,89.1
		c-31.3-3.5-62.6-6.9-94-10.2c0.6-31.4,1.2-62.9,1.8-94.4c0.3-16.2,1.1-26.9,2.4-31.9c1.3-5,3.5-8.6,6.6-10.6
		c4.3-2.9,8.9-3.9,13.7-3c2.4,0.5,4.9,0.9,7.3,1.4c0.1-3,0.1-5.9,0.2-8.9c-28.9-5.6-57.7-11-86.7-16.1c-0.1,3.1-0.1,6.2-0.2,9.3
		c2.4,0.4,4.8,0.8,7.2,1.2c4.8,0.8,9.3,3.6,13.6,8.4c3,3.5,5,7.4,5.9,11.7c1.2,5.7,1.6,17,1.3,34.2c-1.3,72-2.7,144.1-4,216.1
		c-0.4,20.1-1.8,32.7-4.3,38c-3.9,8-10.1,12-18.5,12c-2.4,0-4.8,0-7.2-0.1c-0.1,3.1-0.1,6.2-0.2,9.3c28.9,0.1,57.9,0.2,86.8,0.4
		C2562.5,756.2,2562.6,753.3,2562.6,750.3z"/>
	<path class="st3" d="M2800.9,766.6c27.6,0,51.3-13.6,71.1-38.6c19.7-25,29.8-55.3,30.3-93.1c0.5-36.7-8.7-68.9-27.4-98.5
		c-18.7-29.6-41-48.7-67-55.3c-26.2-6.6-48.9,0-68.3,21.3c-22.3,24.4-33.9,61.4-34.7,108.4c-0.8,46,8,84.4,26.4,113.3
		C2749.8,753.1,2773,766.6,2800.9,766.6z M2738.9,613.9c0.8-46,8.2-79.9,22.1-100.5c11.2-16.6,25.7-22.5,43.7-18.2
		c19.1,4.5,33.9,17.2,44.5,37.2c13.2,25.1,19.5,59.1,18.9,103.1c-0.6,40.6-7.1,69.8-19.8,88.6c-12.7,18.7-28.5,28.4-47.6,28.2
		c-17.8-0.2-32-9.6-42.5-29C2744.6,697.9,2738.1,661,2738.9,613.9z"/>
	<path class="st3" d="M3004.4,755.5c-2.6,0-5.2-0.1-7.8-0.1c-7.7-0.1-13.4-2.6-17.1-7.6c-2.8-3.5-4.1-12.6-4-27
		c0.2-22.3,0.4-44.6,0.6-66.9c6.4,2.4,12.4,4.4,18.1,5.9c5.6,1.5,10.9,2.6,15.7,3.2c19.8,2.6,35.1-0.9,45.9-9.8
		c10.8-8.9,16.2-21.3,16.2-37.8c0-12.2-3.5-23.5-10.6-34.3c-7-10.8-15.7-19.8-25.9-26.6c-10.2-6.8-24.2-13-42-18
		c-24.3-6.9-48.6-13.6-73-20.1c0,2.2-0.1,4.5-0.1,6.7c2.5,0.7,5,1.3,7.5,2c7.6,2,13.2,6.1,17,12.2c2.6,4.3,3.8,13.9,3.7,28.8
		c-0.5,51.1-1,102.2-1.5,153.3c-0.1,13.5-1.2,22.1-3.2,25.6c-3.7,6.5-9.9,9.7-18.5,9.6c-2.5,0-5.1-0.1-7.6-0.1
		c0,2.2-0.1,4.5-0.1,6.7c28.9,0.2,57.9,0.3,86.8,0.5C3004.4,759.5,3004.4,757.5,3004.4,755.5z M2977,548.6
		c7.9-0.1,14.3,0.6,19.3,1.9c8.2,2.2,15.5,6.2,22,12c6.4,5.7,11.4,13,14.9,21.8c3.5,8.8,5.2,17.7,5.2,26.9
		c0,13.4-3.8,23.5-11.3,30.8c-7.5,7.3-16.4,10.4-26.6,9c-2.9-0.4-6.3-1.2-10.4-2.3c-4-1.1-8.7-2.6-13.9-4.5
		C2976.4,612.3,2976.7,580.5,2977,548.6z"/>
	<path class="st3" d="M1636.6,1c-4.9-0.1-9.8-0.2-14.7-0.3C1626.8,0.8,1631.7,0.9,1636.6,1z"/>
	<path class="st3" d="M1652.5,1.5c-2.5-0.1-4.9-0.2-7.4-0.2C1647.6,1.3,1650,1.4,1652.5,1.5z"/>
	<path class="st3" d="M1600,0.3c-13.3-0.2-26.8-0.3-40.5-0.3C1573.1,0,1586.6,0.1,1600,0.3z"/>
	<path class="st3" d="M1473.8,1.2c-2.4,0.1-4.9,0.1-7.3,0.2C1469,1.4,1471.4,1.3,1473.8,1.2z"/>
	<g>
		<path class="st4" d="M251.3,743.7c-6.9-5.2-15.3-15.9-25-31.4c-14.2-22.5-28.3-43.9-42.3-64.3c16.9-6.7,29.2-16.1,37.2-28.3
			c7.9-12.2,11.8-26.1,11.6-41.2c-0.2-14.1-3.8-25.6-11-34c-7.1-8.4-15.7-13-25.8-14c-10.1-1-25.7,1.6-46.8,7.6
			c-24.1,6.9-48.3,13.9-72.3,21.2v5.5c2.5-0.7,5-1.5,7.5-2.2c7.5-2.2,13.2-1.6,17,1.9c2.7,2.4,4.1,10.3,4.2,23.6
			c0.1,45.4,0.3,90.9,0.4,136.3c0,12-1,19.7-3.1,23c-3.7,5.9-9.8,8.8-18.3,8.9c-2.5,0-5.1,0.1-7.6,0.1v5.5
			c28.9-0.2,57.9-0.4,86.8-0.6c0-2.1,0-4.1,0-6.2c-2.6,0-5.3,0.1-7.9,0.1c-7.6,0.1-13.3-2.2-17.1-6.9c-2.8-3.3-4.2-11.8-4.3-25.6
			c-0.1-21.2-0.2-42.4-0.3-63.6c1.6-0.1,3.1-0.2,4.6-0.4c1.5-0.1,2.9-0.3,4.1-0.5c3.2-0.4,7.3-1.1,12.3-2
			c22.9,32,46,66.9,69.3,104.7c18-0.1,36.1-0.2,54.1-0.3c0-2.3-0.1-4.7-0.1-7C267.3,752.3,258.3,749,251.3,743.7z"/>
		<path class="st4" d="M430.2,726.9c-4.7,6.9-9.6,11.5-14.7,13.9c-5.1,2.4-13.4,3.6-24.9,3.8c-11.5,0.2-22.9,0.4-34.4,0.6
			c-5.6,0.1-9.4-0.6-11.4-2.1c-2-1.5-3.4-3.5-4.3-6.1c-0.8-2.6-1.4-9.9-1.5-21.9c-0.5-29.9-0.9-59.7-1.4-89.6
			c14.8-1.8,29.5-3.6,44.3-5.4c8.4-1,14.7-0.3,18.8,2c4.1,2.4,7.1,5.9,9,10.7c1.5,3.8,3,12.7,4.6,26.7c1.8-0.2,3.7-0.3,5.5-0.5
			c-0.6-33.7-1.2-67.4-1.8-101.1c-1.8,0.3-3.7,0.6-5.5,0.9c-0.3,16.6-3,28.5-8,35.7c-3.8,5.5-11.4,8.9-22.9,10.4
			c-14.8,1.9-29.5,3.9-44.3,5.9c-0.6-35.8-1.1-71.6-1.7-107.4c18.3-4.3,36.7-8.4,55.1-12.5c10-2.2,17-2.7,20.9-1.4
			c5,1.9,8.8,5.5,11.4,10.7c2.6,5.2,5.1,15.3,7.5,30.4c1.9-0.3,3.9-0.7,5.8-1c-1.1-21.4-2.2-42.7-3.4-64
			c-51.7,11.6-103.2,24-154.5,37.3c0,2.3,0.1,4.7,0.1,7c2.4-0.6,4.7-1.2,7.1-1.8c8.3-2.1,14.2-0.9,17.8,3.4
			c2.6,3.3,4.1,13.3,4.3,30.1c0.9,57.3,1.7,114.7,2.6,172c0.2,12.9-0.3,21.4-1.3,25.6c-1.1,4.2-3.2,7.3-6.4,9.5
			c-4.2,3-8.7,4.6-13.5,4.6c-2.4,0-4.8,0.1-7.2,0.1c0,2.3,0.1,4.7,0.1,7c52.1-0.3,104.1-0.6,156.2-0.8c5.4-24.6,10.8-49.5,16.1-74.8
			c-2,0.1-4,0.2-6,0.4C442.2,704,436.2,717.8,430.2,726.9z"/>
		<path class="st4" d="M468.9,457.8c-0.4,23.8-0.7,47.5-1.1,71.2c1.9-0.3,3.8-0.6,5.7-0.9c0.4-13.8,2.4-25,5.9-33.8
			c3.5-8.8,7.8-15.1,12.9-19c3.9-2.9,10.6-5.3,20-7.1c8.1-1.6,16.2-3.1,24.2-4.7c1.5,80.4,3,160.8,4.5,241.2
			c0.3,17.7-0.6,29.1-2.7,34c-3.4,8.1-9.4,12.2-18,12.3c-2.4,0-4.8,0-7.2,0.1c0.1,2.8,0.1,5.6,0.2,8.5c28.6-0.1,57.3-0.3,85.9-0.4
			c-0.1-3-0.1-5.9-0.2-8.9c-2.3,0-4.7,0-7,0.1c-7.9,0.1-13.8-3.2-17.7-9.8c-2.8-4.9-4.4-17.2-4.7-36.9c-1.5-81.8-3-163.7-4.6-245.5
			c9.5-1.8,19-3.5,28.5-5.2c8.3-1.5,15.1-0.5,20.3,3.1c5.2,3.6,9.4,9.9,12.7,18.9c2,5.6,3.7,15.2,5,28.8c1.9-0.3,3.8-0.5,5.7-0.8
			c-1.2-26-2.5-52.1-3.7-78C578.6,434.9,523.7,445.9,468.9,457.8z"/>
		<path class="st4" d="M829.3,733.2c-7-7.8-15.5-23.6-25.5-47.1c-14.5-34.1-29.1-67.6-43.6-100.4c16.9-8,29.3-20.4,37.2-37.5
			c7.9-17,11.6-36.8,11.2-59.1c-0.4-20.8-4.2-38.4-11.6-52.4c-7.4-14-16.3-23-26.6-26.9c-10.3-4-26.3-4.2-47.8-0.6
			c-24.6,4.1-49.2,8.4-73.8,12.8c0.1,3.1,0.1,6.1,0.2,9.2c2.5-0.4,5.1-0.9,7.6-1.3c7.7-1.3,13.5,1.3,17.5,8.1
			c2.9,4.7,4.5,17.9,4.9,39.4c1.3,73.6,2.7,147.3,4,220.9c0.4,19.5-0.5,31.9-2.5,37.1c-3.5,9.5-9.6,14.2-18.1,14.3
			c-2.5,0-5.1,0-7.6,0.1c0.1,3.1,0.1,6.1,0.2,9.2c28.9-0.1,57.9-0.2,86.8-0.3c-0.1-3.2-0.1-6.4-0.2-9.6c-2.6,0-5.3,0-7.9,0.1
			c-7.6,0.1-13.3-3.7-17.2-11.1c-2.9-5.3-4.5-18.8-4.9-40.6c-0.6-33.6-1.2-67.2-1.8-100.7c1.6,0,3.1,0,4.6,0c1.5,0,2.9-0.1,4.2-0.2
			c3.2-0.3,7.3-0.8,12.4-1.5c23.8,52.8,47.7,107.3,71.5,163.5c18-0.1,36.1-0.1,54.1-0.2c-0.1-3.4-0.1-6.7-0.2-10.1
			C845.3,746,836.3,741,829.3,733.2z"/>
		<path class="st4" d="M1029.8,416.4c-11.2-20.6-23.4-34.7-36.6-42.7c-10.4-6.2-21.3-8.5-33-7.1c-7.9,1-15.4,3.4-22.5,7.1
			c-17.1,9-32.2,26-45.4,50.5c-21.4,40.2-31.6,89-30.7,147.7c0.9,57.4,11.2,103.6,30.8,139.8c19.6,36.2,43.3,54.8,71.2,54.8
			c27.6,0,50.8-19.2,69.8-58.7c18.9-39.4,28.1-89.4,27.3-149.1C1060,500.8,1049.7,453,1029.8,416.4z"/>
		<path class="st4" d="M1197.6,305.9c148.5-27,165-118.5,361.5-118.5s213,91.5,361.5,118.5c148.5,27,168-34.5,168-34.5
			c-150-6-334.5-228-432-228c-97.5,0-90,97.5-97.5,97.5s0-97.5-97.5-97.5c-97.5,0-282,222-432,228
			C1029.6,271.4,1049.1,332.9,1197.6,305.9z"/>
		<path class="st4" d="M1600,0.3c-13.3-0.2-26.8-0.3-40.5-0.3C1573.1,0,1586.6,0.1,1600,0.3z"/>
		<path class="st4" d="M1214.6,550.3c12-8.2,21.1-20.5,27.2-36.9c6.1-16.4,9-34.8,8.9-55.3c-0.2-23.9-4.3-44.8-12.4-62.7
			c-3.9-8.6-8.6-15.8-14.1-21.7c-6-6.4-12.9-11.1-20.8-14.3c-10-4.1-23.2-5.5-39.7-4.2c-29.5,2.3-58.9,4.9-88.3,7.7
			c0,3.6,0.1,7.2,0.1,10.7c0,0,0,0,0,0c0.1,0,0.2,0,0.2,0h14.3c4.4,1.5,8,5,10.8,10.6c3,6.2,4.6,21.6,4.9,46.2
			c1,85.5,2,171.1,2.9,256.6c0.3,22.3-0.7,36.8-2.9,43.7c-3.6,10.6-9.6,15.9-18.1,15.9c-2.5,0-5.1,0-7.6,0c0,3.6,0.1,7.2,0.1,10.8
			c31.9-0.1,63.8-0.1,95.7-0.2c22.8,0,39.8-4.3,50.8-12.8c11-8.5,19.7-22.1,25.9-40.7c6.2-18.6,9.3-38.1,9.1-58.4
			c-0.2-26.7-5.2-49.2-15.1-67.4C1239.4,565,1228.8,555.7,1214.6,550.3z"/>
		<path class="st4" d="M1559.5,0c-13.7,0-27.2,0.1-40.5,0.3C1532.3,0.1,1545.8,0,1559.5,0z"/>
		<path class="st4" d="M2435.2,597.4c-6.8-9.9-19.5-24.3-38.1-43.9c-22.9-23.9-37.3-43.2-43.2-57.2c-4.1-9.5-6.1-19.8-5.9-30.8
			c0.2-14.4,3.9-26.8,10.8-37.1c7-10.3,15.7-14.6,26-13c9.2,1.4,18,6.9,26.4,16.3c8.4,9.4,14.8,21.3,19.2,35.7
			c4.4,14.4,7.3,33.1,8.7,56.4c1.8,0.2,3.7,0.4,5.5,0.6c0.7-39.9,1.4-79.8,2.2-119.7c-1.8-0.3-3.7-0.6-5.5-1
			c-1.1,7.8-2.6,13-4.2,15.3c-1.7,2.4-3.8,3.4-6.4,2.9c-2.3-0.4-6.2-3.1-11.7-8.4c-11.9-11.1-23.2-17.6-34-19.3
			c-17.3-2.8-31.7,4.3-43.2,21.5c-11.5,17.2-17.5,39.1-17.9,65.3c-0.2,15.1,1.4,29.1,5,42c3.6,12.9,9,24.8,16.1,35.7
			c7.2,10.9,19.3,25.7,36.3,44c17.1,18.3,27.5,29.9,31.3,35.3c5.6,7.9,9.8,16.3,12.3,25.2c2.6,8.9,3.8,17.6,3.6,26.1
			c-0.3,15.4-4.1,28.6-11.6,39.9c-7.4,11.2-17.4,16.9-29.8,16.8c-10.8-0.1-20.6-4.4-29.5-13c-8.9-8.6-15.4-19.4-19.6-32.5
			c-4.2-13-7.3-32.6-9.5-58.9c-1.8-0.1-3.7-0.2-5.5-0.3c-0.7,41.7-1.4,83.3-2.1,125h5.5c0.8-8.4,2-13.9,3.5-16.6c1.5-2.7,3.5-4,6-4
			c2.6,0,8.7,2.9,18.3,8.5c9.6,5.6,16,8.8,19,9.7c5.2,1.6,10.7,2.4,16.6,2.4c18.7,0,34.2-9.7,46.5-28.5c12.2-18.8,18.6-41,19.1-67.1
			c0.2-13.7-1.4-26.9-4.9-39.7C2447.1,618.6,2442,607.2,2435.2,597.4z"/>
		<path class="st4" d="M2807.8,481.1c-26.2-6.6-48.9,0-68.3,21.3c-22.3,24.4-33.9,61.4-34.7,108.4c-0.8,46,8,84.4,26.4,113.3
			c18.5,29,41.7,42.5,69.6,42.5c27.6,0,51.3-13.6,71.1-38.6c19.7-25,29.8-55.3,30.3-93.1c0.5-36.7-8.7-68.9-27.4-98.5
			C2856.1,506.8,2833.8,487.6,2807.8,481.1z"/>
		<path class="st4" d="M2604.2,450.6c2.4,0.5,4.8,0.9,7.1,1.4c4.8,0.9,9.2,3.7,13.4,8.2c3.1,3.4,5.1,7.1,6.1,11.1
			c1.2,5.3,1.6,15.9,1.4,31.9c-0.5,29.7-1.1,59.4-1.6,89.1c-31.3-3.5-62.6-6.9-94-10.2c0.6-31.4,1.2-62.9,1.8-94.4
			c0.3-16.2,1.1-26.9,2.4-31.9c1.3-5,3.5-8.6,6.6-10.6c4.3-2.9,8.9-3.9,13.7-3c2.4,0.5,4.9,0.9,7.3,1.4c0.1-3,0.1-5.9,0.2-8.9
			c-28.9-5.6-57.7-11-86.7-16.1c-0.1,3.1-0.1,6.2-0.2,9.3c2.4,0.4,4.8,0.8,7.2,1.2c4.8,0.8,9.3,3.6,13.6,8.4c3,3.5,5,7.4,5.9,11.7
			c1.2,5.7,1.6,17,1.3,34.2c-1.3,72-2.7,144.1-4,216.1c-0.4,20.1-1.8,32.7-4.3,38c-3.9,8-10.1,12-18.5,12c-2.4,0-4.8,0-7.2-0.1
			c-0.1,3.1-0.1,6.2-0.2,9.3c28.9,0.1,57.9,0.2,86.8,0.4c0.1-2.9,0.1-5.9,0.2-8.8c-2.4,0-4.9,0-7.3-0.1c-4.8,0-9.3-2-13.5-5.9
			c-3.1-2.9-5.2-6.5-6.1-10.5c-1.2-5.4-1.6-16.4-1.3-33.1c0.6-33.5,1.2-67,1.9-100.4c31.4,2.9,62.7,6,94,9.2
			c-0.6,31.6-1.2,63.3-1.8,94.9c-0.3,18.7-1.8,30.4-4.4,35.3c-3.9,7.5-10,11.2-18.3,11.1c-2.4,0-4.8,0-7.2-0.1
			c-0.1,2.9-0.1,5.8-0.2,8.7c28.9,0.1,57.8,0.3,86.7,0.4c0-2.7,0.1-5.5,0.1-8.2c-2.4,0-4.8-0.1-7.2-0.1c-4.8-0.1-9.3-1.9-13.7-5.5
			c-3-2.7-5-6-5.9-9.8c-1.2-5-1.7-15.2-1.4-30.7c1.2-65.7,2.4-131.5,3.6-197.2c0.3-15,1-24.9,2.3-29.5c1.2-4.6,3.4-7.9,6.7-9.6
			c4.3-2.6,8.9-3.3,13.6-2.3c2.4,0.5,4.8,1,7.1,1.5c0-2.7,0.1-5.5,0.1-8.2c-28.7-6.3-57.4-12.4-86.2-18.2
			C2604.3,444.9,2604.3,447.8,2604.2,450.6z"/>
		<path class="st4" d="M3035.4,554.3c-10.2-6.8-24.2-13-42-18c-24.3-6.9-48.6-13.6-73-20.1c0,2.2-0.1,4.5-0.1,6.7
			c2.5,0.7,5,1.3,7.5,2c7.6,2,13.2,6.1,17,12.2c2.6,4.3,3.8,13.9,3.7,28.8c-0.5,51.1-1,102.2-1.5,153.3c-0.1,13.5-1.2,22.1-3.2,25.6
			c-3.7,6.5-9.9,9.7-18.5,9.6c-2.5,0-5.1-0.1-7.6-0.1c0,2.2-0.1,4.5-0.1,6.7c28.9,0.2,57.9,0.3,86.8,0.5c0-2,0-4,0-6
			c-2.6,0-5.2-0.1-7.8-0.1c-7.7-0.1-13.4-2.6-17.1-7.6c-2.8-3.5-4.1-12.6-4-27c0.2-22.3,0.4-44.6,0.6-66.9
			c6.4,2.4,12.4,4.4,18.1,5.9c5.6,1.5,10.9,2.6,15.7,3.2c19.8,2.6,35.1-0.9,45.9-9.8c10.8-8.9,16.2-21.3,16.2-37.8
			c0-12.2-3.5-23.5-10.6-34.3C3054.3,570.1,3045.7,561.2,3035.4,554.3z"/>
		<path class="st4" d="M1847.5,547.5c12.2-7.5,21.4-19.3,27.8-35.3c6.3-16,9.6-34.2,9.8-54.7c0.2-23.9-3.6-45.3-11.4-64.1
			c-3.1-7.4-6.7-13.9-10.9-19.7c-6.5-8.9-14.3-15.8-23.4-20.7c-9.9-5.4-23.2-8.4-39.7-9.2c-29.5-1.3-59-2.3-88.5-3.1
			c0,3.8,0,7.6,0,11.4c2.6,0.1,5.1,0.1,7.7,0.2c7.8,0.2,13.6,4.9,17.5,14c0.8,1.8,1.4,4.3,2,7.4c1.5,8.7,2.3,22.5,2.2,41.5
			c-0.4,89.4-0.8,178.9-1.1,268.4c-0.1,23.3-1.3,38.5-3.6,45.6c-3.7,11-9.8,16.5-18.3,16.5c-2.5,0-5.1,0-7.6,0c0,3.8,0,7.6,0,11.4
			c31.9,0,63.8,0,95.7,0.1c22.8,0,39.8-4.3,51-12.8c11.2-8.5,20-22.1,26.6-40.6c6.5-18.5,9.9-37.9,10-58.2
			c0.2-26.7-4.5-49.4-14-68.1C1872.1,563.9,1861.6,553.9,1847.5,547.5z"/>
		<path class="st4" d="M1477.5,731.7c-4.7-8.3-9.9-26.4-15.6-54.2c-21.1-101.7-42.3-203-63.6-303.7c-2.9-13.7-5.8-27.3-8.7-40.9
			c-1.8,0.1-3.5,0.1-5.3,0.2c-2.8,13.6-5.6,27.2-8.3,40.7c-20.6,100.9-41.1,201.4-61.5,301.2c-6,29.8-11.5,49.5-16.5,59.2
			c-2.5,4.9-7.9,8.8-16.4,11.9c0,3.7,0.1,7.5,0.1,11.2c21.3,0,42.6-0.1,63.8-0.1c0-3.8,0-7.5-0.1-11.3c-9.8-1.4-16.2-4.5-19.1-9.2
			c-3-4.7-4.5-10.3-4.5-16.5c0-7.9,1.6-19.8,4.9-35.9c4.5-21.7,8.9-43.5,13.4-65.3c26.3-0.4,52.5-0.8,78.8-1
			c4.2,19.9,8.4,39.8,12.5,59.7c4.1,19.4,6.1,33.6,6.1,42.6c0,6.8-1.4,12.5-4.2,17.2c-2.8,4.7-8.3,7.5-16.3,8.3c0,3.8,0,7.6,0,11.3
			c26.7,0,53.3,0,80,0c0-3.8,0-7.6,0-11.4C1488.6,744.6,1482.2,740,1477.5,731.7z"/>
		<path class="st4" d="M1680.5,728.4c-6.9-9-15-27.3-24.6-54.8c-13.9-40-27.8-80-41.8-120c17.1-7.7,29.8-21,38-39.8
			c8.2-18.8,12.4-41,12.4-66.6c0.1-24-3.5-44.7-10.7-62.2c-1.7-4.1-3.4-7.8-5.3-11.3c-6.1-11.4-13-19.7-21-24.8
			c-10.3-6.6-26.4-9.9-48.1-10c-24.9,0-49.8,0.1-74.7,0.5c0,3.8,0,7.6,0,11.4c2.6,0,5.1-0.1,7.7-0.1c7.8-0.1,13.6,4.4,17.5,13.4
			c0.9,2.1,1.7,5.3,2.3,9.6c1.3,8.7,1.9,21.8,1.9,39.4c0.1,90,0.2,180,0.3,269.9c0,23.8-1,38.9-3.1,45.3
			c-3.7,11.5-9.8,17.3-18.4,17.3c-2.5,0-5.1,0-7.6,0c0,3.8,0,7.6,0,11.4c29,0,57.9,0,86.9,0c0-3.8,0-7.6,0-11.4c-2.6,0-5.3,0-7.9,0
			c-7.6,0-13.3-4.5-17.1-13.6c-2.8-6.4-4.2-22.7-4.2-49c0-40.5,0-81,0-121.5c1.6,0.2,3.2,0.4,4.7,0.5c1.5,0.1,2.9,0.2,4.2,0.2
			c3.2,0,7.4-0.2,12.5-0.6c23,65.2,45.8,130.4,68.6,195.4c18,0,36.1,0,54.1,0c0-3.8,0-7.6,0-11.4
			C1696.3,743.2,1687.3,737.5,1680.5,728.4z"/>
		<path class="st4" d="M2064.4,713c-4.9,9.1-10,15.2-15.2,18.2c-5.2,3.1-13.6,4.6-25,4.5c-11.5-0.1-22.9-0.1-34.4-0.2
			c-5.6,0-9.4-1.2-11.3-3.5c-2-2.3-3.3-5.4-4.1-9.2c-0.8-3.9-1.1-14.7-0.9-32.5c0.4-44.3,0.9-88.5,1.3-132.8
			c14.9,0.6,29.8,1.2,44.7,1.9c8.5,0.4,14.8,2.6,18.8,6.7c4.1,4.1,6.9,9.6,8.7,16.5c1.3,5.5,2.6,18,3.8,37.3
			c1.8,0.1,3.7,0.1,5.5,0.2c0.5-45.9,1.1-91.9,1.6-137.8c-1.9-0.1-3.7-0.2-5.6-0.4c-0.9,22.6-4,38.2-9.3,46.9
			c-4,6.6-11.8,9.7-23.4,9.1c-14.9-0.7-29.8-1.4-44.8-2.1c0.5-53.1,1.1-106.1,1.6-159.2c18.7,1.4,37.4,2.8,56,4.4
			c10.1,0.9,17.2,2.9,21.2,6.2c5,4.5,8.7,10.8,11.2,18.8c2.5,8,4.6,22.5,6.5,43.4c2,0.1,3.9,0.3,5.9,0.4c-0.4-25.3-0.7-50.7-1.1-76
			c0-3.5-0.1-7-0.1-10.5c-52.5-5.1-105-9.4-157.5-12.8c0,3.7-0.1,7.4-0.1,11.1c2.4,0.2,4.8,0.3,7.2,0.5c7.9,0.5,13.7,4.5,17.3,11.8
			c0.2,0.5,0.4,0.9,0.7,1.4c2.6,6.2,3.7,22.1,3.5,47.7c-0.8,87.7-1.6,175.4-2.4,263c-0.2,19.7-0.9,32.7-2.1,39.1
			c-1.2,6.4-3.4,11.1-6.6,14.3c-4.3,4.6-8.9,6.8-13.7,6.8c-2.4,0-4.8,0-7.2,0c0,3.7-0.1,7.4-0.1,11.1c52.1,0.1,104.2,0.2,156.2,0.3
			c6.2-32.9,12.5-65.7,18.7-98.4c-2-0.1-4-0.1-6-0.2C2077.3,683,2070.8,701,2064.4,713z"/>
		<path class="st4" d="M2276.3,732.7c-6.8-8.1-14.7-24.5-23.9-49.4c-13.4-36.2-26.8-72.8-40.3-110c17.2-6,30-17.2,38.4-33.5
			c8.4-16.3,12.8-35.8,13.2-58.7c0.3-21.5-3-40.3-9.9-56.7c-6.9-16.4-15.5-28.2-25.6-35.3c-10.2-7.1-26.1-12.1-47.7-14.6
			c-2-0.2-3.9-0.5-5.9-0.7c-22.8-2.6-45.6-5.2-68.4-7.5c0,2.5-0.1,5-0.1,7.5c0,1.1,0,2.1,0,3.2c2.6,0.3,5.1,0.5,7.7,0.8
			c7.7,0.8,13.5,5.6,17.3,14.4c2.7,6.2,3.9,21.5,3.6,46l-3.3,250.9c-0.3,22.1-1.5,36.2-3.7,42.1c-3.8,10.7-10,16-18.6,16
			c-2.5,0-5.1,0-7.6,0c0,3.6-0.1,7.1-0.1,10.7c29,0.1,57.9,0.1,86.9,0.2c0.1-3.5,0.1-6.9,0.2-10.4c-2.6,0-5.3,0-7.9,0
			c-7.6,0-13.2-4.2-16.9-12.6c-2.7-5.9-3.9-21-3.6-45.2c0.5-37.3,1-74.6,1.6-111.9c1.6,0.3,3.1,0.5,4.6,0.7c1.5,0.2,2.9,0.3,4.2,0.4
			c3.2,0.2,7.3,0.2,12.4,0.1c22.1,61,44.1,120.8,66.1,179.2c18,0.1,36.1,0.1,54.1,0.2c0.1-3.3,0.1-6.7,0.2-10
			C2291.9,745.9,2283,740.8,2276.3,732.7z"/>
		<path d="M3118.5,373.8L3118.5,373.8c-456.5-0.3-669-347-1466-372.3c-2.5-0.1-4.9-0.2-7.4-0.2c-2.8-0.1-5.7-0.2-8.5-0.2
			c-4.9-0.1-9.8-0.2-14.7-0.3c-1,0-1.9,0-2.9-0.1c-6.2-0.1-12.4-0.2-18.6-0.3c-0.1,0-0.3,0-0.4,0c-13.4-0.2-26.9-0.3-40.5-0.3
			c-13.6,0-27.1,0.1-40.5,0.3c-0.1,0-0.3,0-0.4,0c-6.2,0.1-12.4,0.2-18.6,0.3c-1,0-1.9,0-2.9,0.1c-4.9,0.1-9.8,0.2-14.7,0.3
			c-2.9,0.1-5.7,0.2-8.6,0.2c-2.4,0.1-4.9,0.1-7.3,0.2C669.2,26.7,456.9,373.8,0,373.8v497.8h3118.9L3118.5,373.8z M1461.6,43.4
			c97.5,0,90,97.5,97.5,97.5s0-97.5,97.5-97.5c97.5,0,282,222,432,228c0,0-19.5,61.5-168,34.5c-148.5-27-165-118.5-361.5-118.5
			s-213,91.5-361.5,118.5c-148.5,27-168-34.5-168-34.5C1179.6,265.4,1364.1,43.4,1461.6,43.4z M224.4,761
			c-23.3-37.7-46.4-72.7-69.3-104.7c-5,0.9-9.1,1.6-12.3,2c-1.3,0.2-2.7,0.3-4.1,0.5c-1.5,0.1-3,0.3-4.6,0.4
			c0.1,21.2,0.2,42.4,0.3,63.6c0.1,13.8,1.5,22.3,4.3,25.6c3.8,4.7,9.5,7,17.1,6.9c2.6,0,5.3-0.1,7.9-0.1c0,2.1,0,4.1,0,6.2
			c-28.9,0.2-57.9,0.4-86.8,0.6v-5.5c2.5,0,5.1-0.1,7.6-0.1c8.6-0.1,14.7-3.1,18.3-8.9c2.1-3.3,3.1-10.9,3.1-23
			c-0.1-45.4-0.3-90.9-0.4-136.3c0-13.3-1.4-21.2-4.2-23.6c-3.8-3.5-9.5-4.1-17-1.9c-2.5,0.7-5,1.4-7.5,2.2v-5.5
			c24.1-7.2,48.2-14.3,72.3-21.2c21.1-6,36.7-8.6,46.8-7.6c10.1,1,18.7,5.6,25.8,14c7.1,8.4,10.8,19.9,11,34
			c0.2,15.1-3.7,29-11.6,41.2c-7.9,12.3-20.3,21.7-37.2,28.3c14,20.4,28.1,41.8,42.3,64.3c9.7,15.5,18.1,26.2,25,31.4
			c6.9,5.2,15.9,8.6,27,10c0,2.3,0.1,4.7,0.1,7C260.4,760.8,242.4,760.9,224.4,761z M438.2,759.8c-52.1,0.3-104.1,0.5-156.2,0.8
			c0-2.3-0.1-4.7-0.1-7c2.4,0,4.8-0.1,7.2-0.1c4.8-0.1,9.3-1.6,13.5-4.6c3.2-2.1,5.3-5.3,6.4-9.5c1.1-4.2,1.5-12.7,1.3-25.6
			c-0.9-57.3-1.7-114.7-2.6-172c-0.3-16.8-1.7-26.9-4.3-30.1c-3.6-4.3-9.6-5.5-17.8-3.4c-2.4,0.6-4.7,1.2-7.1,1.8
			c0-2.3-0.1-4.7-0.1-7c51.4-13.2,102.9-25.6,154.5-37.3c1.1,21.3,2.2,42.6,3.4,64c-1.9,0.3-3.9,0.7-5.8,1
			c-2.4-15.1-4.8-25.2-7.5-30.4c-2.6-5.2-6.4-8.8-11.4-10.7c-4-1.3-11-0.8-20.9,1.4c-18.4,4.1-36.7,8.2-55.1,12.5
			c0.6,35.8,1.1,71.6,1.7,107.4c14.8-2,29.5-4,44.3-5.9c11.5-1.5,19.1-4.9,22.9-10.4c5-7.2,7.7-19.1,8-35.7c1.8-0.3,3.7-0.6,5.5-0.9
			c0.6,33.7,1.2,67.4,1.8,101.1c-1.8,0.2-3.7,0.3-5.5,0.5c-1.6-14-3.2-22.8-4.6-26.7c-1.9-4.8-4.9-8.3-9-10.7
			c-4.1-2.4-10.4-3-18.8-2c-14.8,1.8-29.5,3.6-44.3,5.4c0.5,29.9,0.9,59.7,1.4,89.6c0.2,12,0.7,19.3,1.5,21.9
			c0.8,2.6,2.3,4.6,4.3,6.1c2,1.5,5.8,2.2,11.4,2.1c11.5-0.2,22.9-0.4,34.4-0.6c11.5-0.2,19.7-1.5,24.9-3.8c5.1-2.4,10-7,14.7-13.9
			c6-9.1,12.1-22.8,18.2-41.5c2-0.1,4-0.2,6-0.4C449,710.3,443.6,735.2,438.2,759.8z M631.7,503.6c-1.4-13.6-3-23.2-5-28.8
			c-3.3-9-7.5-15.3-12.7-18.9c-5.2-3.6-12-4.6-20.3-3.1c-9.5,1.7-19,3.4-28.5,5.2c1.5,81.8,3,163.7,4.6,245.5
			c0.4,19.7,1.9,32,4.7,36.9c3.9,6.6,9.8,9.9,17.7,9.8c2.3,0,4.7,0,7-0.1c0.1,3,0.1,5.9,0.2,8.9c-28.6,0.1-57.3,0.3-85.9,0.4
			c-0.1-2.8-0.1-5.6-0.2-8.5c2.4,0,4.8,0,7.2-0.1c8.6-0.1,14.6-4.1,18-12.3c2.1-5,3-16.4,2.7-34c-1.5-80.4-3-160.8-4.5-241.2
			c-8.1,1.5-16.2,3.1-24.2,4.7c-9.4,1.8-16.1,4.2-20,7.1c-5.1,3.9-9.4,10.2-12.9,19c-3.5,8.8-5.5,20-5.9,33.8
			c-1.9,0.3-3.8,0.6-5.7,0.9c0.4-23.7,0.7-47.4,1.1-71.2c54.8-11.9,109.7-22.9,164.8-33.1c1.2,26,2.5,52,3.7,78
			C635.5,503.1,633.6,503.3,631.7,503.6z M802.5,758.3c-23.8-56.2-47.7-110.7-71.5-163.5c-5.1,0.8-9.2,1.2-12.4,1.5
			c-1.3,0.1-2.7,0.2-4.2,0.2c-1.5,0-3,0-4.6,0c0.6,33.6,1.2,67.2,1.8,100.7c0.4,21.8,2,35.3,4.9,40.6c3.9,7.5,9.7,11.2,17.2,11.1
			c2.6,0,5.3,0,7.9-0.1c0.1,3.2,0.1,6.4,0.2,9.6c-29,0.1-57.9,0.2-86.8,0.3c-0.1-3.1-0.1-6.1-0.2-9.2c2.5,0,5.1,0,7.6-0.1
			c8.6-0.1,14.6-4.8,18.1-14.3c2-5.2,2.8-17.6,2.5-37.1c-1.3-73.6-2.7-147.3-4-220.9c-0.4-21.5-2-34.7-4.9-39.4
			c-4-6.7-9.9-9.4-17.5-8.1c-2.5,0.4-5.1,0.9-7.6,1.3c-0.1-3.1-0.1-6.1-0.2-9.2c24.6-4.4,49.2-8.7,73.8-12.8
			c21.5-3.6,37.5-3.4,47.8,0.6c10.3,4,19.2,12.9,26.6,26.9c7.4,14,11.3,31.6,11.6,52.4c0.4,22.3-3.4,42-11.2,59.1
			c-7.9,17.1-20.3,29.5-37.2,37.5c14.6,32.8,29.1,66.3,43.6,100.4c10,23.5,18.5,39.3,25.5,47.1c7,7.8,16.1,12.8,27.2,14.9
			c0.1,3.4,0.1,6.7,0.2,10.1C838.5,758.2,820.5,758.3,802.5,758.3z M1033.4,707.9c-18.9,39.4-42.2,58.7-69.8,58.7
			c-27.9,0-51.6-18.6-71.2-54.8c-19.6-36.2-29.8-82.4-30.8-139.8c-0.9-58.7,9.3-107.5,30.7-147.7c13.1-24.5,28.2-41.5,45.4-50.5
			c7.2-3.8,14.7-6.2,22.5-7.1c11.6-1.4,22.6,0.9,33,7.1c13.2,7.9,25.5,22.1,36.6,42.7c19.9,36.6,30.2,84.4,30.9,142.4
			C1061.5,618.5,1052.3,668.5,1033.4,707.9z M1252.5,703.8c-6.2,18.6-14.9,32.2-25.9,40.7c-11,8.5-28,12.8-50.8,12.8
			c-31.9,0.1-63.8,0.1-95.7,0.2c0-3.6-0.1-7.2-0.1-10.8c2.5,0,5.1,0,7.6,0c8.5,0,14.5-5.3,18.1-15.9c2.2-6.8,3.2-21.4,2.9-43.7
			c-1-85.5-2-171.1-2.9-256.6c-0.3-24.6-1.9-40-4.9-46.2c-2.7-5.6-6.3-9.1-10.8-10.6h-14.3c-0.1,0-0.2,0-0.2,0c0,0,0,0,0,0
			c0-3.6-0.1-7.2-0.1-10.7c29.4-2.8,58.9-5.4,88.3-7.7c16.5-1.3,29.7,0.1,39.7,4.2c7.9,3.2,14.8,8,20.8,14.3
			c5.5,5.9,10.2,13.1,14.1,21.7c8.1,17.9,12.2,38.8,12.4,62.7c0.2,20.5-2.8,38.9-8.9,55.3c-6.1,16.4-15.1,28.7-27.2,36.9
			c14.2,5.5,24.8,14.7,31.9,27.8c9.9,18.2,14.9,40.7,15.1,67.4C1261.8,665.7,1258.7,685.2,1252.5,703.8z M1416.9,757.1
			c0-3.8,0-7.6,0-11.3c8.1-0.8,13.5-3.6,16.3-8.3c2.8-4.7,4.2-10.4,4.2-17.2c0-9-2.1-23.2-6.1-42.6c-4.2-19.9-8.3-39.8-12.5-59.7
			c-26.3,0.3-52.5,0.6-78.8,1c-4.5,21.8-8.9,43.5-13.4,65.3c-3.3,16-4.9,28-4.9,35.9c0,6.3,1.5,11.8,4.5,16.5
			c3,4.8,9.3,7.8,19.1,9.2c0,3.8,0,7.5,0.1,11.3c-21.3,0-42.6,0-63.8,0.1c0-3.7-0.1-7.5-0.1-11.2c8.5-3,13.9-7,16.4-11.9
			c5-9.7,10.5-29.4,16.5-59.2c20.3-99.8,40.8-200.2,61.5-301.2c2.8-13.6,5.6-27.1,8.3-40.7c1.8-0.1,3.5-0.1,5.3-0.2
			c2.9,13.6,5.8,27.3,8.7,40.9c21.4,100.7,42.6,202,63.6,303.7c5.8,27.8,11,45.9,15.6,54.2c4.7,8.3,11.1,13,19.4,14
			c0,3.8,0,7.6,0,11.4C1470.3,757,1443.6,757.1,1416.9,757.1z M1707.3,757.1c-18,0-36.1,0-54.1,0c-22.7-65.1-45.6-130.3-68.6-195.4
			c-5.1,0.4-9.3,0.6-12.5,0.6c-1.3,0-2.7,0-4.2-0.2c-1.5-0.1-3.1-0.3-4.7-0.5c0,40.5,0,81,0,121.5c0,26.3,1.4,42.6,4.2,49
			c3.8,9,9.5,13.6,17.1,13.6c2.6,0,5.3,0,7.9,0c0,3.8,0,7.6,0,11.4c-29,0-57.9,0-86.9,0c0-3.8,0-7.6,0-11.4c2.5,0,5.1,0,7.6,0
			c8.6,0,14.7-5.8,18.4-17.3c2.1-6.4,3.1-21.5,3.1-45.3c-0.1-90-0.2-180-0.3-269.9c0-17.6-0.7-30.7-1.9-39.4
			c-0.6-4.3-1.4-7.5-2.3-9.6c-3.9-9-9.8-13.5-17.5-13.4c-2.6,0-5.1,0.1-7.7,0.1c0-3.8,0-7.6,0-11.4c24.9-0.3,49.8-0.5,74.7-0.5
			c21.8,0,37.8,3.4,48.1,10c7.9,5,14.9,13.3,21,24.8c1.8,3.5,3.6,7.2,5.3,11.3c7.2,17.4,10.7,38.2,10.7,62.2
			c-0.1,25.6-4.2,47.8-12.4,66.6c-8.2,18.8-20.9,32.1-38,39.8c14,40,27.9,80,41.8,120c9.5,27.5,17.7,45.8,24.6,54.8
			c6.9,9,15.8,14.8,26.9,17.2C1707.3,749.5,1707.3,753.3,1707.3,757.1z M1883,703.7c-6.5,18.5-15.4,32.1-26.6,40.6
			c-11.2,8.5-28.2,12.8-51,12.8c-31.9,0-63.8-0.1-95.7-0.1c0-3.8,0-7.6,0-11.4c2.5,0,5.1,0,7.6,0c8.5,0,14.6-5.5,18.3-16.5
			c2.3-7.1,3.5-22.4,3.6-45.6c0.4-89.5,0.8-178.9,1.1-268.4c0.1-18.9-0.7-32.8-2.2-41.5c-0.6-3.1-1.2-5.6-2-7.4
			c-3.9-9.1-9.7-13.8-17.5-14c-2.6-0.1-5.1-0.1-7.7-0.2c0-3.8,0-7.6,0-11.4c29.5,0.8,59,1.8,88.5,3.1c16.5,0.7,29.7,3.8,39.7,9.2
			c9.1,4.9,17,11.8,23.4,20.7c4.2,5.7,7.8,12.3,10.9,19.7c7.8,18.8,11.6,40.2,11.4,64.1c-0.2,20.5-3.4,38.7-9.8,54.7
			c-6.3,16-15.6,27.7-27.8,35.3c14.1,6.5,24.6,16.4,31.5,29.9c9.6,18.8,14.2,41.5,14,68.1C1892.8,665.8,1889.5,685.2,1883,703.7z
			 M2071.4,757.6c-52.1-0.1-104.2-0.2-156.2-0.3c0-3.7,0.1-7.4,0.1-11.1c2.4,0,4.8,0,7.2,0c4.8,0,9.3-2.3,13.7-6.8
			c3.2-3.2,5.4-7.9,6.6-14.3c1.2-6.4,1.9-19.4,2.1-39.1c0.8-87.7,1.6-175.4,2.4-263c0.2-25.7-0.9-41.6-3.5-47.7
			c-0.2-0.5-0.4-1-0.7-1.4c-3.6-7.3-9.4-11.2-17.3-11.8c-2.4-0.2-4.8-0.3-7.2-0.5c0-3.7,0.1-7.4,0.1-11.1
			c52.6,3.5,105.1,7.8,157.5,12.8c0,3.5,0.1,7,0.1,10.5c0.4,25.4,0.7,50.7,1.1,76c-2-0.1-3.9-0.3-5.9-0.4c-1.9-20.9-4-35.4-6.5-43.4
			c-2.5-8-6.2-14.3-11.2-18.8c-4-3.3-11-5.4-21.2-6.2c-18.7-1.6-37.4-3-56-4.4c-0.5,53.1-1.1,106.1-1.6,159.2
			c14.9,0.7,29.8,1.3,44.8,2.1c11.6,0.6,19.4-2.5,23.4-9.1c5.3-8.7,8.4-24.3,9.3-46.9c1.9,0.1,3.7,0.2,5.6,0.4
			c-0.5,45.9-1.1,91.9-1.6,137.8c-1.8-0.1-3.7-0.1-5.5-0.2c-1.2-19.3-2.4-31.8-3.8-37.3c-1.7-6.9-4.6-12.4-8.7-16.5
			c-4.1-4.1-10.3-6.3-18.8-6.7c-14.9-0.7-29.8-1.3-44.7-1.9c-0.4,44.3-0.9,88.5-1.3,132.8c-0.2,17.8,0.1,28.7,0.9,32.5
			c0.8,3.9,2.1,7,4.1,9.2c2,2.3,5.7,3.4,11.3,3.5c11.5,0.1,22.9,0.1,34.4,0.2c11.5,0.1,19.8-1.4,25-4.5c5.2-3.1,10.3-9.2,15.2-18.2
			c6.3-12,12.9-30,19.7-54c2,0.1,4,0.1,6,0.2C2083.8,691.8,2077.6,724.6,2071.4,757.6z M2302.8,758.2c-18-0.1-36.1-0.1-54.1-0.2
			c-22-58.4-44-118.2-66.1-179.2c-5.1,0.1-9.3,0-12.4-0.1c-1.3-0.1-2.7-0.2-4.2-0.4c-1.5-0.2-3-0.4-4.6-0.7
			c-0.5,37.3-1,74.6-1.6,111.9c-0.3,24.2,0.8,39.3,3.6,45.2c3.7,8.4,9.3,12.5,16.9,12.6c2.6,0,5.3,0,7.9,0c0,3.5-0.1,6.9-0.2,10.4
			c-29-0.1-57.9-0.1-86.9-0.2c0-3.6,0.1-7.1,0.1-10.7c2.5,0,5.1,0,7.6,0c8.6,0,14.8-5.3,18.6-16c2.2-5.9,3.4-19.9,3.7-42.1
			l3.3-250.9c0.3-24.4-0.9-39.8-3.6-46c-3.8-8.8-9.6-13.6-17.3-14.4c-2.6-0.3-5.1-0.5-7.7-0.8c0-1.1,0-2.1,0-3.2
			c0-2.5,0.1-5,0.1-7.5c22.8,2.3,45.6,4.8,68.4,7.5c2,0.2,3.9,0.4,5.9,0.7c21.6,2.5,37.6,7.5,47.7,14.6
			c10.2,7.1,18.7,18.9,25.6,35.3c6.9,16.4,10.2,35.2,9.9,56.7c-0.4,22.9-4.7,42.4-13.2,58.7c-8.4,16.3-21.2,27.5-38.4,33.5
			c13.4,37.1,26.9,73.8,40.3,110c9.2,24.9,17.2,41.3,23.9,49.4c6.8,8.1,15.6,13.3,26.7,15.5C2302.9,751.5,2302.8,754.8,2302.8,758.2
			z M2455.5,671c-0.5,26-6.8,48.2-19.1,67.1c-12.3,18.8-27.7,28.5-46.5,28.5c-5.9,0-11.4-0.8-16.6-2.4c-3.1-0.9-9.4-4.1-19-9.7
			c-9.6-5.6-15.7-8.5-18.3-8.5c-2.5,0-4.5,1.3-6,4c-1.5,2.7-2.7,8.2-3.5,16.6h-5.5c0.7-41.7,1.4-83.3,2.1-125
			c1.8,0.1,3.7,0.2,5.5,0.3c2.2,26.2,5.3,45.9,9.5,58.9c4.2,13,10.7,23.9,19.6,32.5c8.9,8.6,18.7,12.9,29.5,13
			c12.5,0.1,22.4-5.5,29.8-16.8c7.4-11.2,11.3-24.5,11.6-39.9c0.2-8.6-1.1-17.3-3.6-26.1c-2.6-8.9-6.7-17.3-12.3-25.2
			c-3.8-5.4-14.2-17-31.3-35.3c-17.1-18.3-29.2-33.1-36.3-44c-7.2-10.9-12.5-22.9-16.1-35.7c-3.6-12.9-5.3-26.9-5-42
			c0.4-26.2,6.4-48.1,17.9-65.3c11.5-17.2,25.9-24.3,43.2-21.5c10.8,1.7,22.1,8.3,34,19.3c5.5,5.2,9.4,8,11.7,8.4
			c2.6,0.4,4.7-0.6,6.4-2.9c1.7-2.4,3.1-7.5,4.2-15.3c1.8,0.3,3.7,0.6,5.5,1c-0.7,39.9-1.4,79.8-2.2,119.7c-1.8-0.2-3.7-0.4-5.5-0.6
			c-1.4-23.2-4.3-42-8.7-56.4c-4.4-14.4-10.8-26.2-19.2-35.7c-8.4-9.4-17.2-14.9-26.4-16.3c-10.4-1.6-19.1,2.7-26,13
			c-7,10.3-10.6,22.7-10.8,37.1c-0.2,11,1.8,21.3,5.9,30.8c6,14,20.4,33.3,43.2,57.2c18.6,19.5,31.3,34,38.1,43.9
			c6.8,9.9,11.9,21.2,15.4,34C2454.1,644.1,2455.8,657.3,2455.5,671z M2690.4,468.3c-2.4-0.5-4.8-1-7.1-1.5c-4.8-1-9.3-0.3-13.6,2.3
			c-3.2,1.7-5.4,4.9-6.7,9.6c-1.2,4.7-2,14.5-2.3,29.5c-1.2,65.7-2.4,131.5-3.6,197.2c-0.3,15.5,0.2,25.7,1.4,30.7
			c0.9,3.8,2.9,7,5.9,9.8c4.3,3.7,8.9,5.5,13.7,5.5c2.4,0,4.8,0,7.2,0.1c0,2.7-0.1,5.4-0.1,8.2c-28.9-0.1-57.8-0.3-86.7-0.4
			c0.1-2.9,0.1-5.8,0.2-8.7c2.4,0,4.8,0,7.2,0.1c8.3,0.1,14.4-3.7,18.3-11.1c2.6-4.9,4-16.6,4.4-35.3c0.6-31.6,1.2-63.3,1.8-94.9
			c-31.3-3.2-62.6-6.3-94-9.2c-0.6,33.5-1.2,67-1.9,100.4c-0.3,16.7,0.1,27.7,1.3,33.1c0.9,4.1,2.9,7.6,6.1,10.5
			c4.2,3.9,8.7,5.9,13.5,5.9c2.4,0,4.9,0,7.3,0.1c-0.1,2.9-0.1,5.9-0.2,8.8c-28.9-0.1-57.9-0.2-86.8-0.4c0.1-3.1,0.1-6.2,0.2-9.3
			c2.4,0,4.8,0,7.2,0.1c8.4,0.1,14.5-3.9,18.5-12c2.5-5.2,3.9-17.9,4.3-38c1.3-72,2.7-144.1,4-216.1c0.3-17.1-0.1-28.5-1.3-34.2
			c-0.9-4.3-2.9-8.2-5.9-11.7c-4.3-4.7-8.8-7.5-13.6-8.4c-2.4-0.4-4.8-0.8-7.2-1.2c0.1-3.1,0.1-6.2,0.2-9.3
			c28.9,5.1,57.8,10.5,86.7,16.1c-0.1,3-0.1,5.9-0.2,8.9c-2.4-0.5-4.9-0.9-7.3-1.4c-4.8-0.9-9.3,0.1-13.7,3c-3.1,2-5.3,5.6-6.6,10.6
			c-1.3,5.1-2.1,15.7-2.4,31.9c-0.6,31.5-1.2,62.9-1.8,94.4c31.3,3.2,62.7,6.6,94,10.2c0.5-29.7,1.1-59.4,1.6-89.1
			c0.3-15.9-0.2-26.5-1.4-31.9c-0.9-4-2.9-7.7-6.1-11.1c-4.2-4.5-8.7-7.3-13.4-8.2c-2.4-0.5-4.8-0.9-7.1-1.4
			c0.1-2.9,0.1-5.8,0.2-8.7c28.8,5.8,57.5,11.9,86.2,18.2C2690.5,462.9,2690.5,465.6,2690.4,468.3z M2872,728
			c-19.7,25-43.5,38.6-71.1,38.6c-27.9,0-51.1-13.5-69.6-42.5c-18.5-28.9-27.3-67.3-26.4-113.3c0.8-47,12.4-83.9,34.7-108.4
			c19.3-21.3,42.1-27.9,68.3-21.3c26,6.5,48.3,25.7,67,55.3c18.7,29.6,27.9,61.8,27.4,98.5C2901.7,672.6,2891.7,702.9,2872,728z
			 M3055.7,653.1c-10.8,8.9-26.1,12.4-45.9,9.8c-4.8-0.6-10.1-1.7-15.7-3.2c-5.6-1.5-11.6-3.5-18.1-5.9c-0.2,22.3-0.4,44.6-0.6,66.9
			c-0.1,14.5,1.2,23.5,4,27c3.7,5,9.4,7.5,17.1,7.6c2.6,0,5.2,0.1,7.8,0.1c0,2,0,4,0,6c-28.9-0.2-57.9-0.4-86.8-0.5
			c0-2.2,0.1-4.5,0.1-6.7c2.5,0,5.1,0.1,7.6,0.1c8.6,0.1,14.7-3.1,18.5-9.6c2-3.6,3.1-12.1,3.2-25.6c0.5-51.1,1-102.2,1.5-153.3
			c0.1-14.9-1.1-24.5-3.7-28.8c-3.8-6.1-9.4-10.3-17-12.2c-2.5-0.7-5-1.3-7.5-2c0-2.2,0.1-4.5,0.1-6.7c24.4,6.5,48.7,13.2,73,20.1
			c17.8,5.1,31.8,11.2,42,18c10.2,6.9,18.9,15.8,25.9,26.6c7,10.9,10.6,22.2,10.6,34.3C3071.9,631.8,3066.5,644.2,3055.7,653.1z"/>
	</g>
	<path class="st3" d="M1619,0.6c-6.2-0.1-12.4-0.2-18.6-0.3C1606.6,0.4,1612.8,0.5,1619,0.6z"/>
	<path class="st3" d="M1497.1,0.7c-4.9,0.1-9.8,0.2-14.7,0.3C1487.3,0.9,1492.2,0.8,1497.1,0.7z"/>
	<path class="st3" d="M1518.5,0.3c-6.2,0.1-12.4,0.2-18.6,0.3C1506.1,0.5,1512.3,0.4,1518.5,0.3z"/>
	<path class="st3" d="M1559.5,0c-13.7,0-27.2,0.1-40.5,0.3C1532.3,0.1,1545.8,0,1559.5,0z"/>
	<path class="st4" d="M1559.1,140.9c-7.5,0,0-97.5-97.5-97.5c-97.5,0-282,222-432,228c0,0,19.5,61.5,168,34.5
		c148.5-27,165-118.5,361.5-118.5s213,91.5,361.5,118.5c148.5,27,168-34.5,168-34.5c-150-6-334.5-228-432-228
		C1559.1,43.4,1566.6,140.9,1559.1,140.9z"/>
</g>
</svg>
