<?xml version="1.0" encoding="utf-8"?>
<!-- Generator: Adobe Illustrator 21.1.0, SVG Export Plug-In . SVG Version: 6.00 Build 0)  -->
<svg version="1.1" id="Layer_1" xmlns="http://www.w3.org/2000/svg" xmlns:xlink="http://www.w3.org/1999/xlink" x="0px" y="0px"
	 viewBox="0 0 387.9 477.9" style="enable-background:new 0 0 387.9 477.9;" xml:space="preserve" fill="#fff">
<g>
	<g>
		<g>
			<path d="M150.1,412.7c-5.8,13.2,0.3,28.6,13.4,34.3c13.2,5.8,28.6-0.3,34.3-13.4c5.8-13.2-0.3-28.6-13.4-34.3
				C171.3,393.5,155.9,399.5,150.1,412.7z M183,427c-2.2,5-8,7.2-13,5.1c-5-2.2-7.2-8-5.1-13c2.2-5,8-7.2,13-5.1
				C182.9,416.3,185.2,422.1,183,427z"/>
			<path d="M345.5,31.1c-13.2-5.8-28.6,0.3-34.3,13.4c-5.8,13.2,0.3,28.6,13.4,34.3s28.6-0.3,34.3-13.4
				C364.7,52.2,358.7,36.8,345.5,31.1z M331.1,64c-5-2.2-7.2-8-5.1-13c2.2-5,8-7.2,13-5.1c5,2.2,7.2,8,5.1,13
				C341.9,63.9,336.1,66.1,331.1,64z"/>
			<path d="M342.1,0.5c-14-1.9-27.9,1.7-39.2,10.3c-11.3,8.6-18.5,21-20.4,35c-1.7,12.4-3.8,24.9-6.1,37.2c-0.9,4.4,2,8.7,6.4,9.5
				c4.4,0.9,8.6-2,9.5-6.4c2.4-12.6,4.5-25.4,6.3-38.1c1.3-9.7,6.4-18.4,14.2-24.3c7.8-5.9,17.5-8.5,27.2-7.2
				c9.7,1.3,18.4,6.4,24.3,14.2c5.9,7.8,8.5,17.5,7.2,27.2c-9.7,71.1-29.3,140.7-58.3,207c-29,66.3-66.8,128-112.4,183.4
				c-6.2,7.6-15.1,12.3-24.8,13.2c-9.8,0.9-19.3-2-26.9-8.2c-7.6-6.2-12.3-15.1-13.2-24.8c-0.9-9.8,2-19.3,8.2-26.9
				c3-3.6,6-7.3,8.9-11c0,0,0,0,0,0c1.5-1.9,3-3.8,4.5-5.7c3.8-4.9,7.5-9.9,11.2-14.9c0,0,0,0,0,0c0,0,0,0,0,0
				c30.5-41.7,56.4-86.7,77.3-134.5c17.5-40,31.3-81.6,41.1-123.8c1-4.4-1.7-8.7-6.1-9.7c-4.4-1-8.7,1.7-9.7,6.1
				c-9.6,41.2-23.1,81.9-40.2,120.9c-18.4,42.1-40.9,82.1-67,119.4l-12.1-30.4l3.1-1.2c0.3-0.1,0.5-0.2,0.8-0.4
				c6.1-3.3,25.1-16.3,12.4-48.2L106,113c-1.7-4.2-6.4-6.2-10.5-4.5c-4.2,1.7-6.2,6.4-4.5,10.5l62,155.2c5.4,13.6,3.9,23-4.6,27.7
				l-10.2,4.1c-4.2,1.7-6.2,6.4-4.5,10.5l19,47.5c-1,1.3-1.9,2.6-2.9,3.9c-0.4,0.5-0.7,1-1.1,1.4L18.2,42.7
				c-1.3-3.2-1.7-5.3-1.9-6.5c0.1,0,0.2,0,0.3,0l1.4,0.3c0,0,0.1,0,0.1,0l2.8,0.6C40.6,43.6,66.6,58,79.3,89.8l1.7,4.4
				c1.7,4.2,6.4,6.2,10.5,4.5c4.2-1.7,6.2-6.4,4.5-10.5l-1.7-4.4C79.2,45.9,48.6,29.1,25.5,21.6c-0.2-0.1-0.5-0.1-0.7-0.2l-4.9-1.1
				c-0.1,0-0.3-0.1-0.4-0.1c-6.9-1.2-12.7,0.6-16.2,5c-6.4,7.9-1.7,19.6-0.2,23.5l134,335.5c-1.9,2.4-3.8,4.8-5.8,7.1
				c-9,10.9-13.2,24.7-11.8,38.8c1.4,14.1,8.1,26.8,19,35.8c22.5,18.6,56,15.3,74.6-7.2c46.6-56.5,85.2-119.5,114.8-187.2
				c29.6-67.7,49.6-138.8,59.5-211.3C391.4,31.2,371.1,4.4,342.1,0.5z"/>
		</g>
	</g>
</g>
</svg>
